<?xml version="1.0" standalone="no"?>
<!DOCTYPE svg PUBLIC "-//W3C//DTD SVG 1.1//EN" "http://www.w3.org/Graphics/SVG/1.1/DTD/svg11.dtd" >
<svg xmlns="http://www.w3.org/2000/svg" xmlns:xlink="http://www.w3.org/1999/xlink" version="1.1">
<metadata></metadata>
<defs>
<font id="lsregular" horiz-adv-x="997" >
<font-face units-per-em="2048" ascent="1638" descent="-410" />
<missing-glyph horiz-adv-x="583" />
<glyph horiz-adv-x="0" />
<glyph horiz-adv-x="682" />
<glyph horiz-adv-x="2076" d="M72 161q-2 25 4 52q8 45 48.5 97t125.5 91q135 62 362 45q14 51 33 145.5t23 110.5l80 363q-148 -27 -259 0.5t-131 101.5q-10 38 3.5 70t48 56t68 39.5t79.5 31.5l18 -14q-58 -16 -89 -53t-29 -78q1 -45 33.5 -72.5t82 -34.5t95.5 -5.5t90 9.5q42 173 74 259.5t75 148.5 q84 119 204 154q98 29 159 -15q66 -47 38 -149l-10 -29q-57 -148 -180.5 -248t-275.5 -147q-7 -36 -26 -128t-30 -142.5t-28 -126.5t-33 -138t-33 -117q50 -6 150 -20t163.5 -21t149 -12t162.5 2.5t147 28.5q-41 58 -147 102l-31 15.5t-35 18.5t-41 24.5t-39 29.5t-40 37 t-33.5 42.5t-29 51t-17 59t-7.5 68.5q0 123 83.5 212t211.5 89q29 0 43 -2q-10 19 -12 29q-30 88 2.5 161t108 102.5t164.5 0.5q82 -28 147.5 -97t103.5 -159.5t45 -198.5t-19.5 -209.5t-100 -196.5t-185.5 -157q21 -61 21 -119v-4q0 -128 -85.5 -219.5t-217.5 -91.5 q-85 0 -162 42.5t-131 115.5q-19 28 -13.5 60t31.5 52q28 20 60.5 15t52.5 -33q27 -36 66.5 -62t82.5 -30h13q66 0 104.5 46t38.5 105v2q0 31 -10 58q-76 -22 -159.5 -30.5t-172 -3t-158.5 13.5t-168 22t-151 20q-36 -110 -78 -178q-89 -149 -234 -193q-115 -35 -205 10 q-83 41 -89 125zM172 162q17 -54 78 -73q87 -28 183 38l24 18q90 69 145 258q-126 7 -220 -16t-163 -90q-69 -66 -47 -135zM852 1143q89 36 172 95t121 105q26 32 59.5 88.5t42.5 96.5q18 71 -42 98q-58 25 -133 -6q-58 -24 -91 -72q-60 -87 -129 -405zM1206 864 q0 -33 13 -62t26.5 -46.5t43.5 -37.5t41.5 -26t43.5 -21q7 -3 10 -5q169 -80 230 -185q105 66 168 177.5t75 231.5t-25.5 242t-121.5 209q-42 44 -81.5 65.5t-68.5 20.5t-46 -7t-29 -15q-38 -29 -39 -77t26 -99t59 -97t62 -84t33 -47q12 -31 2 -55q-10 -28 -29 -41 q-26 -19 -59 -13.5t-53 32.5q-29 38 -69 60t-79 22h-2q-58 0 -94.5 -41.5t-36.5 -100.5z" />
<glyph horiz-adv-x="2076" d="M72 161q-2 25 4 52q8 45 48.5 97t125.5 91q135 62 362 45q14 51 33 145.5t23 110.5l80 363q-148 -27 -259 0.5t-131 101.5q-10 38 3.5 70t48 56t68 39.5t79.5 31.5l18 -14q-58 -16 -89 -53t-29 -78q1 -45 33.5 -72.5t82 -34.5t95.5 -5.5t90 9.5q42 173 74 259.5t75 148.5 q84 119 204 154q98 29 159 -15q66 -47 38 -149l-10 -29q-57 -148 -180.5 -248t-275.5 -147q-7 -36 -26 -128t-30 -142.5t-28 -126.5t-33 -138t-33 -117q50 -6 150 -20t163.5 -21t149 -12t162.5 2.5t147 28.5q-41 58 -147 102l-31 15.5t-35 18.5t-41 24.5t-39 29.5t-40 37 t-33.5 42.5t-29 51t-17 59t-7.5 68.5q0 123 83.5 212t211.5 89q29 0 43 -2q-10 19 -12 29q-30 88 2.5 161t108 102.5t164.5 0.5q82 -28 147.5 -97t103.5 -159.5t45 -198.5t-19.5 -209.5t-100 -196.5t-185.5 -157q21 -61 21 -119v-4q0 -128 -85.5 -219.5t-217.5 -91.5 q-85 0 -162 42.5t-131 115.5q-19 28 -13.5 60t31.5 52q28 20 60.5 15t52.5 -33q27 -36 66.5 -62t82.5 -30h13q66 0 104.5 46t38.5 105v2q0 31 -10 58q-76 -22 -159.5 -30.5t-172 -3t-158.5 13.5t-168 22t-151 20q-36 -110 -78 -178q-89 -149 -234 -193q-115 -35 -205 10 q-83 41 -89 125zM172 162q17 -54 78 -73q87 -28 183 38l24 18q90 69 145 258q-126 7 -220 -16t-163 -90q-69 -66 -47 -135zM852 1143q89 36 172 95t121 105q26 32 59.5 88.5t42.5 96.5q18 71 -42 98q-58 25 -133 -6q-58 -24 -91 -72q-60 -87 -129 -405zM1206 864 q0 -33 13 -62t26.5 -46.5t43.5 -37.5t41.5 -26t43.5 -21q7 -3 10 -5q169 -80 230 -185q105 66 168 177.5t75 231.5t-25.5 242t-121.5 209q-42 44 -81.5 65.5t-68.5 20.5t-46 -7t-29 -15q-38 -29 -39 -77t26 -99t59 -97t62 -84t33 -47q12 -31 2 -55q-10 -28 -29 -41 q-26 -19 -59 -13.5t-53 32.5q-29 38 -69 60t-79 22h-2q-58 0 -94.5 -41.5t-36.5 -100.5z" />
<glyph horiz-adv-x="3942" d="M59 -157q1 23 9 46q39 119 190 170q54 19 111.5 23t107.5 -2t121 -21l195 613q-147 -14 -243.5 24.5t-109.5 116.5q-6 39 21 68.5t74 44t101 20.5t105 2l-22 -16q-87 3 -138 -19t-53 -61q-4 -46 23.5 -78t73 -46.5t91.5 -19t89 -1.5q89 260 217 407q98 112 224 132 q101 17 157 -34q63 -56 22 -158l-10 -22q-72 -141 -206 -226.5t-294 -117.5q-8 -24 -49 -155.5t-59 -188t-51.5 -150.5t-61.5 -159q83 -20 174 -52t150 -53t173.5 -40.5t266.5 -26.5q111 -6 205 4l-39 -27q-9 -2 -20 -2.5t-15 -1.5q-82 -4 -127 -4q-149 4 -270.5 25.5 t-189 46t-157.5 55t-165 45.5q-45 -102 -90 -160q-104 -142 -255 -170q-117 -22 -201 32q-79 51 -75 137zM168.5 -175.5q15.5 -79.5 91.5 -100t182 37.5q39 32 74.5 98.5t51.5 116.5l16 50q-240 58 -359 -56q-72 -67 -56.5 -146.5zM926 725q88 25 179.5 82.5t137.5 103.5 q57 57 86 140q23 64 -15 105t-104 35t-112 -61q-72 -86 -172 -405zM999 25q-28 45 0 170q10 43 24.5 80.5t37 86t31.5 68.5q5 15 2 19q-7 7 -21 -3l-18 -9t-21.5 -11.5t-17.5 -11.5q-19 7 27 41q32 23 59 34q99 34 104 -10q1 -11 -6 -33q-15 -40 -40.5 -97.5t-39.5 -92.5 q-1 -3 -7.5 -20t-10.5 -29t-11 -36t-9 -40.5t-5 -43t2 -42.5q3 -20 41 5q22 14 33 30q47 63 68 103.5t53 129.5q20 100 90 260q61 139 160.5 242t197.5 123q53 11 91 -7t38 -59q-1 -27 -10.5 -48t-32 -38.5t-39 -27.5t-51.5 -27q-48 -25 -143 -47l-25 -4l13 16q89 27 135 58 q36 26 54.5 47t23.5 55q3 23 -11 40.5t-41 10.5q-60 -17 -136.5 -120.5t-139.5 -235.5q-30 -58 -59 -137q46 43 81 61q62 31 101 14q52 -22 61.5 -96.5t-18.5 -140.5q-19 -52 -37 -89t-44 -73t-61 -59t-79 -33q-48 -10 -89 25.5t-44 109.5q0 70 4 103q-18 -47 -34.5 -79.5 t-51 -75t-78.5 -69.5q-23 -16 -55 -13.5t-46 26.5zM1133 631q-3 19 8 37q8 14 26 28q15 15 35 21q6 2 21 2q12 -4 18 -8q7 -7 10 -19q2 -6 2 -20q-3 -17 -16 -37q-3 -5 -25 -27q-20 -12 -32 -12q-17 -3 -31 8q-12 7 -16 27zM1335 104q-2 -42 16.5 -66.5t45.5 -14.5 q18 7 33.5 23.5t26 32t23.5 48.5t18 48.5t18 55.5q18 60 21 116t-13 85q-19 26 -60 8q-39 -17 -84 -53q-36 -115 -45 -283zM1633.5 159.5q1.5 39.5 11.5 80.5q27 104 95 180.5t146 83.5q58 4 82 -50t2 -104q-50 -121 -231 -102q-10 -36 -16 -71t-7.5 -70.5t8 -56t31.5 -19.5 q33 1 65.5 23t62.5 62.5t48.5 70t42.5 72.5q4 8 6 11h23q-48 -102 -116 -186t-130 -84q-47 0 -76.5 23t-39 60t-8 76.5zM1747 270q70 -7 100 13.5t47 62.5q19 40 19 90.5t-29 46.5q-28 -3 -55.5 -37t-46.5 -78t-35 -98zM1942 0l16 39q77 202 117 319q4 13 9 40t1 32 q-2 3 -12 -13q-18 -29 -35 -69q-1 -3 -35 -78q-3 1 -8.5 1h-9t-3.5 1q14 28 31.5 69t30.5 69.5t22 40.5q17 23 54 41.5t55 13.5q11 -1 11.5 -28.5t-5.5 -63t-16 -66.5q85 139 119 150q27 8 49.5 8.5t34 -5t10.5 -14.5q-46 -72 -70 -147q-3 -9 0 -13t10 -1q90 29 176 272 l25 64q-109 -9 -260 18q-15 2 -26 4.5t-27.5 7t-32.5 8.5q-17 4 -35 25q-6 8 -2 9q1 0 4 -1q196 -64 387 -49q49 123 115 240q6 10 10.5 19t14 18t20.5 14q31 14 64 18.5t47 -2.5q14 -9 15 -15q5 -23 -87 -118q-16 -32 -40 -79.5t-36 -73.5q23 6 72.5 20.5t79 21t47.5 5.5 q49 -3 74 -15t32 -39q15 -62 -61 -94q-9 -6 -35 -4.5t-39 14.5q-23 23 0 62q10 15 31.5 24.5t36.5 6.5q-5 4 -15 6q-23 2 -55.5 -1t-51.5 -6.5t-68 -14t-62 -13.5q-29 -64 -60 -139q-159 -399 -147 -482q3 -19 37 -3q42 20 80 75q44 64 116 193t105 163q28 23 74 22t47 -28 q2 -15 -4 -33q-14 -33 -42.5 -87t-48.5 -103q-1 -1 -6 -16t-8 -23.5t-9 -29t-8.5 -33t-7 -36t-3 -37t1.5 -36.5q4 -20 40 12q17 16 27 31q39 59 86.5 144.5t80.5 147t40 71.5q15 22 55 41t60 14q17 -8 13.5 -51t-22.5 -107q50 75 111 133q22 21 56.5 29.5t68.5 -6.5 q33 -20 -2 -98q-46 -100 -60 -132t-29.5 -71.5t-25.5 -73.5q-22 -75 -3 -92q6 -5 16 0q43 24 84.5 90t56.5 131q29 98 94 169t139 77q58 4 82 -42t2 -95q-26 -65 -88 -95.5t-151 -21.5q-8 -37 -12 -74.5t-3 -73.5t13 -58t34 -21q68 3 160 79t131 146q6 20 19 20 q13 -1 10 -15q-1 -2 -2 -5q-38 -82 -143.5 -165t-172.5 -83q-70 0 -99.5 44.5t-27.5 113.5q-30 -70 -114 -138q-28 -22 -60.5 -23.5t-54.5 23.5q-17 26 2 111q17 63 56 155t49 120q2 6 10 45q2 10 -10 11q-12 -1 -21 -11q-12 -13 -33.5 -34t-29 -29.5t-25 -31t-41.5 -57.5 q-31 -81 -70.5 -174.5t-52.5 -124.5q-47 11 -96 0q0 6 10 39q19 47 41 96.5t39 93t45 129.5q21 65 14 72q-3 4 -18 -17.5t-39 -62.5t-49 -85.5t-56 -99.5t-53 -91q-27 -47 -63.5 -66.5t-63.5 -14.5t-38 23q-11 19 -11.5 47t4.5 55.5t13 61.5q1 3 1.5 5t1 5t1.5 5 q10 42 23.5 78t36 84t30.5 67q22 34 16 43q-3 3 -11 -1t-15 -15q-16 -22 -83 -145.5t-116 -188.5q-32 -42 -86 -92q-31 -24 -73 -26.5t-54 24.5q-18 49 5.5 146t78.5 251q-2 -4 -12 -19t-12.5 -18.5t-11 -16t-12.5 -17t-12.5 -15t-14.5 -16t-15 -13.5t-18.5 -15t-20.5 -14 q-23 -14 -46.5 -15.5t-39.5 15.5q-7 12 3 55.5t30 74.5q15 23 8 28q-5 0 -14 -12q-8 -9 -23.5 -28t-22.5 -28.5t-18 -24t-18 -28t-13 -28.5q-74 -201 -108 -285q-47 13 -98 0zM3490 272q38 -4 66 3t45 23.5t26.5 31t17.5 35.5q29 67 17 102q-7 18 -25 16q-41 -4 -82 -67 t-65 -144z" />
<glyph unicode=" "  horiz-adv-x="583" />
<glyph unicode="&#x09;" horiz-adv-x="583" />
<glyph unicode="&#xa0;" horiz-adv-x="583" />
<glyph unicode="!" horiz-adv-x="294" d="M53 74q0 40 29 69t70 29t69.5 -29t28.5 -69q0 -42 -28.5 -71.5t-69.5 -29.5t-70 30t-29 71zM76 313v1094q0 31 22.5 52.5t53.5 21.5t53 -21.5t22 -52.5v-1094q0 -32 -22 -53.5t-53 -21.5t-53.5 21.5t-22.5 53.5z" />
<glyph unicode="&#x22;" horiz-adv-x="765" d="M74 1454q0 117 80 117q20 0 47.5 -19.5t27.5 -56.5q0 -4 -2 -15.5t-2 -25.5q0 -90 76 -147q33 -20 33 -62q0 -3 -1 -8t-6 -18.5t-12 -23.5t-22 -18t-35 -8t-50.5 21t-60.5 56.5t-51.5 91t-21.5 116.5zM369 1454q0 117 80 117q20 0 46.5 -19.5t26.5 -56.5q0 -4 -1 -15.5 t-1 -25.5q0 -90 76 -147q33 -20 33 -62q0 -3 -1 -8t-6 -18.5t-12 -23.5t-22 -18t-35 -8q-50 0 -117 84.5t-67 200.5z" />
<glyph unicode="#" horiz-adv-x="976" d="M57 215q0 31 22.5 53.5t53.5 22.5h96l43 153h-51q-32 0 -54 21.5t-22 52.5q0 32 22 54t54 22h96l21 76q1 1 6.5 11t12 19t21.5 17t34 8q25 0 50 -20.5t25 -55.5l-4 -20l-10 -35h148l22 76l3 8q4 7 9 14t12.5 15t20 13t27.5 5q26 0 51 -20.5t25 -55.5q0 -15 -5 -20l-8 -35 h45q31 0 53.5 -22t22.5 -54q0 -31 -22.5 -52.5t-53.5 -21.5h-88l-45 -153h45q32 0 54 -22.5t22 -53.5t-22 -53.5t-54 -22.5h-88l-33 -112l-2 -5q-2 -6 -4.5 -10t-6.5 -10.5t-9 -11.5t-12 -9.5t-16.5 -7t-20.5 -2.5q-26 0 -51 20.5t-25 55.5l2 21l20 71h-145l-33 -112l-7 -11 q-6 -12 -12 -20.5t-21 -16.5t-33 -8q-26 0 -51 20.5t-25 55.5q0 17 4 21l20 71h-53q-31 0 -53.5 22.5t-22.5 53.5zM387 291h145l46 153h-148z" />
<glyph unicode="$" horiz-adv-x="940" d="M84 1157q0 141 84.5 247t216.5 132v96q0 31 21.5 53.5t52.5 22.5q32 0 54 -22.5t22 -53.5v-96q168 -33 282 -184q14 -21 14 -45q0 -25 -18.5 -50.5t-56.5 -25.5q-37 0 -62 31q-44 61 -106.5 96t-126.5 35h-4q-96 0 -158.5 -68.5t-62.5 -167.5q0 -53 20 -100t46 -76.5 t68 -58.5t66 -41.5t61 -29.5q8 -3 11 -5q54 -25 89 -43.5t83.5 -54.5t83.5 -78q101 -119 104 -275v-4q0 -92 -37.5 -175t-115 -144t-180.5 -76v-92q0 -32 -22 -54t-54 -22q-31 0 -52.5 22t-21.5 54v98q-116 28 -207.5 110.5t-91.5 129.5q0 31 19 50t38 22l19 3q40 0 61 -30 q47 -65 114.5 -105.5t141.5 -40.5q107 0 172.5 75t65.5 175v2q-1 66 -26.5 120t-76 93.5t-78.5 56t-80 40.5q-4 2 -6.5 3.5t-5.5 2.5q-94 43 -137 71q-223 144 -223 377z" />
<glyph unicode="%" horiz-adv-x="897" d="M49 1292q0 66 48 114t114 48t114 -48t48 -114t-48 -114t-114 -48t-114 48t-48 114zM152 1292q0 -25 17 -42t42 -17t42 17t17 42t-17 42.5t-42 17.5t-42 -17.5t-17 -42.5zM188 68l2 18l361 1401q9 27 25 42t49 15q8 0 17 -2t23.5 -8.5t23.5 -23.5t9 -42q0 -16 -2 -18 l-358 -1401q-11 -28 -26.5 -42.5t-47.5 -14.5q-11 0 -22 2.5t-24.5 9.5t-21.5 23.5t-8 40.5zM547 324q0 66 48 113.5t114 47.5t113.5 -47.5t47.5 -113.5t-47.5 -114t-113.5 -48t-114 48t-48 114zM649 324q0 -25 17.5 -42.5t42.5 -17.5t42 17.5t17 42.5t-17 42t-42 17 t-42.5 -17t-17.5 -42z" />
<glyph unicode="&#x26;" horiz-adv-x="1339" d="M96 344q0 235 274 409q5 4 7 5q-123 216 -123 418q0 93 28 167.5t74 118.5t99.5 67t109.5 23q126 0 219 -99t93 -257q0 -280 -293 -483l34 -47q111 -155 205 -267q38 60 64.5 120t37 96.5t21.5 67t27 43.5t45 13q25 0 50.5 -20t25.5 -55t-48.5 -157.5t-117.5 -221.5 q55 -52 109 -84.5t88 -42.5t61.5 -18.5t39.5 -24t11 -47.5q0 -13 -3.5 -27t-22 -31.5t-50.5 -17.5q-16 0 -57.5 11.5t-122 55t-150.5 109.5q-174 -176 -370 -176q-154 0 -259.5 100.5t-105.5 251.5zM248 344q0 -85 59.5 -143t153.5 -58q135 0 266 136q-80 94 -231 296 l-39 56q-32 -22 -49 -34.5t-52.5 -44t-55 -59t-36 -68t-16.5 -81.5zM403 1176q0 -152 101 -336q221 157 221 356q0 84 -45 144.5t-115 60.5q-68 0 -115 -61t-47 -164z" />
<glyph unicode="'" horiz-adv-x="557" d="M129 1245q0 24 16.5 45.5t37 37.5t37 49t16.5 77l-1 12q-1 11 -1 21t2.5 24.5t9 25.5t19.5 20t32 12q9 2 25.5 -1t36 -18.5t24.5 -42.5q4 -36 4 -53q0 -114 -66 -199.5t-118 -85.5q-30 0 -48.5 19t-22.5 38z" />
<glyph unicode="(" horiz-adv-x="458" d="M59 766q0 402 203 745q23 37 66 37q3 0 8 -1t17.5 -5.5t22 -11.5t17.5 -22t8 -35q0 -3 -4 -19.5t-6 -19.5q-180 -309 -180 -668q0 -358 178 -660q2 -3 6 -19t4 -19q0 -40 -28 -58t-47 -18q-44 0 -66 39q-199 344 -199 735z" />
<glyph unicode=")" horiz-adv-x="458" d="M66 68q0 3 4 19t6 19q180 309 180 668q0 358 -178 660q-2 3 -6 19.5t-4 19.5q0 28 17.5 46.5t33 23.5t24.5 5q44 0 66 -39q199 -344 199 -735q0 -402 -203 -745q-23 -37 -66 -37q-3 0 -8 1t-17.5 6t-22 12t-17.5 22t-8 35z" />
<glyph unicode="*" horiz-adv-x="989" d="M47 1325q0 32 22.5 54t53.5 22h57l-43 43q-20 20 -20 53q0 34 23 55t53 21t53 -23l41 -41v58q0 31 21.5 53t53.5 22q31 0 53.5 -22t22.5 -53v-60l41 43q31 23 53 23q33 0 54.5 -24t21.5 -52q0 -15 -5 -27.5t-9.5 -18.5t-7.5 -7l-41 -43h57q32 0 54 -22t22 -54 q0 -31 -22 -53.5t-54 -22.5h-57l39 -39q22 -22 22 -53q0 -34 -23 -55t-53 -21t-53 23l-39 41v-58q0 -32 -22.5 -53.5t-53.5 -21.5q-32 0 -53.5 21.5t-21.5 53.5v56l-41 -39q-17 -23 -53 -23q-33 0 -53.5 23t-20.5 53t20 53l41 39h-57q-31 0 -53.5 22.5t-22.5 53.5z" />
<glyph unicode="+" d="M43 453q0 31 22.5 53t53.5 22h321v297q0 31 22 53.5t54 22.5q31 0 53.5 -22.5t22.5 -53.5v-297h301q31 0 53.5 -22t22.5 -53q0 -32 -22.5 -54t-53.5 -22h-301v-326q0 -31 -22.5 -53.5t-53.5 -22.5q-32 0 -54 22.5t-22 53.5v326h-321q-31 0 -53.5 22t-22.5 54z" />
<glyph unicode="," horiz-adv-x="292" d="M6 -154q0 23 12.5 39t30 36.5t25.5 49.5q-23 30 -23 64q0 40 29.5 69t69.5 29q41 0 70.5 -29t29.5 -69q0 -14 -10 -52.5t-28 -88t-53 -86.5t-77 -37q-35 0 -55.5 22.5t-20.5 52.5z" />
<glyph unicode="-" horiz-adv-x="737" d="M37 676q0 32 22 54t54 22h520q32 0 54 -22t22 -54q0 -31 -22 -52.5t-54 -21.5h-520q-32 0 -54 21.5t-22 52.5z" />
<glyph unicode="." horiz-adv-x="294" d="M53 39q0 40 29 69t70 29t69.5 -29t28.5 -69q0 -41 -28.5 -70.5t-69.5 -29.5t-70 29.5t-29 70.5z" />
<glyph unicode="/" horiz-adv-x="653" d="M78 68l2 18l360 1401q16 57 72 57q76 0 76 -76l-2 -18l-361 -1401q-7 -19 -13.5 -29.5t-21 -19t-36.5 -8.5q-7 0 -16.5 2.5t-24.5 9t-25 23.5t-10 41z" />
<glyph unicode="0" horiz-adv-x="1077" d="M94 704.5v37.5v30q0 124 8 216.5t30 190t67.5 173t115.5 127.5q52 40 102 56.5t115 16.5q70 0 131.5 -23t105 -59t78.5 -86t56.5 -98.5t36.5 -101.5q25 -90 32 -180.5t7 -223.5q0 -96 -3.5 -167t-16.5 -158t-36 -152t-65 -128t-100 -107q-99 -76 -226 -76 q-85 0 -156.5 35t-118.5 92.5t-77 117.5t-47 125q-7 25 -12.5 51.5t-9.5 54.5t-7 50.5t-5 52.5t-3 46.5t-1.5 47.5t-0.5 39.5zM244 772q0 -61 1.5 -106t6 -107.5t15.5 -111t28 -99.5t45.5 -91.5t65.5 -68.5q60 -45 126 -45q76 0 134 45q38 28 66 68t45 92t28 99.5 t15.5 112.5t5.5 109.5t1 110.5q0 77 -2 129.5t-10.5 127.5t-25 128.5t-48 106.5t-75.5 86q-53 43 -134 43q-39 0 -74.5 -12t-75 -49t-68.5 -95t-48 -159.5t-20 -233.5q-2 -51 -2 -80z" />
<glyph unicode="1" horiz-adv-x="557" d="M6 1337q-9 24 1.5 55t41.5 42l275 104q12 6 28 6q3 0 8 -1t18 -6t22.5 -12t17.5 -22t8 -35v-1400q0 -31 -22 -53.5t-54 -22.5q-31 0 -52.5 22.5t-21.5 53.5v1290l-172 -66q-25 -9 -55.5 2t-42.5 43z" />
<glyph unicode="2" horiz-adv-x="964" d="M92 68q0 34 70 143.5t117 173.5q42 57 114 144.5t119 148t96 135.5t74 148.5t25 146.5q0 69 -22.5 125.5t-59 91t-78 52.5t-82.5 18q-68 0 -125.5 -41.5t-75.5 -114.5q-13 -59 -74 -59q-11 0 -20.5 2t-23 9t-21.5 23.5t-8 40.5q0 22 12 55.5t39.5 75t66 77t99.5 59.5 t131 24q71 0 140.5 -30t125.5 -84t90.5 -138.5t34.5 -185.5q0 -104 -36.5 -205t-100.5 -195t-131.5 -177.5t-152 -190.5t-138.5 -197h494q31 0 53 -22t22 -53t-22 -53.5t-53 -22.5h-623q-31 0 -50 19t-22 38z" />
<glyph unicode="3" horiz-adv-x="1011" d="M98 264q0 28 9 43t36 27q21 12 54 1t47 -42q27 -65 78.5 -102.5t109.5 -44.5t119.5 12t110.5 60t80.5 108.5t31.5 148.5q0 131 -84.5 219t-204.5 88h-120q-31 0 -53.5 21.5t-22.5 52.5v2q0 31 21 52.5t52 23.5h117q98 4 160.5 74t62.5 159q0 95 -65 161.5t-156 66.5 q-61 0 -123.5 -40.5t-83.5 -121.5q-16 -64 -73 -64q-27 0 -51.5 18.5t-24.5 63.5q0 23 13 57.5t42 76t69 76.5t101 59t131 24q153 0 263 -109t110 -268q0 -85 -36.5 -163.5t-104.5 -133.5q91 -56 152 -159t61 -236t-63.5 -245t-167.5 -175t-222 -63q-75 0 -140.5 25.5 t-107 61.5t-71.5 76t-43 68.5t-13 40.5z" />
<glyph unicode="4" horiz-adv-x="888" d="M28.5 507q-17.5 36 8.5 77l526 921q20 39 64 39q12 0 27 -4t33 -22.5t18 -49.5v-845h32q31 0 53.5 -22.5t22.5 -53.5q0 -32 -22.5 -54t-53.5 -22h-32v-403q0 -31 -22.5 -53.5t-53.5 -22.5q-32 0 -54 22.5t-22 53.5v403h-451q-56 0 -73.5 36zM233 623h320v561z" />
<glyph unicode="5" horiz-adv-x="1011" d="M100 176q0 30 22 53t52 23q21 0 46.5 -17.5t49.5 -38t71 -38t105 -17.5q137 0 238.5 106t101.5 259t-97 250.5t-224 97.5h-232q-29 0 -51 21t-22 53v540q0 30 20.5 53t52.5 23h527q32 0 54 -22.5t22 -53.5t-22 -53t-54 -22h-451v-387h154q92 0 178.5 -37t152 -101.5 t105 -159t39.5 -202.5q0 -135 -63.5 -253.5t-177.5 -190.5t-251 -72q-190 0 -323 133q-23 23 -23 53z" />
<glyph unicode="6" horiz-adv-x="1005" d="M66 494q0 101 39 224t82.5 215t127.5 222t121 180.5t116 154.5q11 16 17 23q21 31 62 31q27 0 51.5 -21.5t24.5 -54.5q0 -23 -17 -45q-129 -171 -218 -303t-155 -268q76 33 166 33q186 0 321.5 -134.5t135.5 -324.5q0 -122 -59.5 -223t-156.5 -156t-208 -55 q-85 0 -165 34.5t-143.5 96.5t-102.5 159t-39 212zM217 494q0 -85 27 -154t70.5 -110.5t95.5 -64t106 -22.5q109 0 190.5 80.5t81.5 202.5q0 123 -88.5 215t-216.5 92q-89 0 -156.5 -45t-101.5 -117q0 -1 -4 -20t-4 -57z" />
<glyph unicode="7" horiz-adv-x="1013" d="M100 68q0 2 3 15.5t3 14.5l263 580h-176q-32 0 -54 21.5t-22 52.5q0 32 22 53.5t54 21.5h243l254 566h-514q-31 0 -53.5 22t-22.5 53t22.5 53.5t53.5 22.5h631q31 0 50 -19t23 -38l3 -19q0 -2 -3 -15t-3 -15l-275 -611h127q31 0 53.5 -21.5t22.5 -53.5q0 -31 -22.5 -52.5 t-53.5 -21.5h-197l-286 -641q-11 -25 -26 -35.5t-44 -9.5q-25 0 -50.5 21t-25.5 55z" />
<glyph unicode="8" horiz-adv-x="1017" d="M98 428q0 43 8.5 86t31.5 99t74.5 111.5t125.5 98.5q-67 39 -113 86.5t-67.5 95.5t-30 86.5t-8.5 77.5q0 99 49 186.5t138.5 141.5t197.5 55h4q163 0 273 -112t110 -264q0 -216 -209 -349q74 -45 125 -101.5t73.5 -113.5t31 -99.5t8.5 -84.5q0 -114 -53 -214t-148.5 -161 t-208.5 -61h-6q-165 3 -285.5 129.5t-120.5 306.5zM248 428q0 -119 78 -201t180 -84h4q107 0 182.5 84.5t75.5 200.5q0 66 -24 120.5t-67 92t-78 59t-83 43.5q-34 -15 -59 -27.5t-59.5 -33.5t-58 -45t-46 -54.5t-34 -70t-11.5 -84.5zM268 1169q0 -45 17.5 -84t41 -64.5 t61.5 -50t63 -36t63 -27.5q32 15 54 26.5t57.5 36.5t57.5 51.5t39 67.5t17 87q0 90 -66 157.5t-165 67.5h-4q-92 -2 -164 -68t-72 -164z" />
<glyph unicode="9" d="M94 1102q0 181 118 311.5t290 130.5q109 0 201.5 -57.5t149 -166t56.5 -245.5q0 -169 -84 -366.5t-236.5 -383.5t-342.5 -319q-22 -14 -43 -14q-31 0 -50 19t-23 38l-3 19q0 38 33 61q305 211 479 541q-62 -19 -121 -19q-83 0 -160.5 34.5t-135.5 93.5t-93 143.5 t-35 179.5zM244 1102q0 -128 82.5 -213.5t191.5 -85.5q48 0 89 16.5t66.5 40t43.5 49t25.5 42.5t7.5 22q8 41 8 102q0 144 -75.5 231t-180.5 87q-108 0 -183 -86t-75 -205z" />
<glyph unicode=":" horiz-adv-x="294" d="M53 57q0 41 29 70t70 29t69.5 -29t28.5 -70q0 -40 -28.5 -69t-69.5 -29t-70 29t-29 69zM53 795q0 41 29 70.5t70 29.5t69.5 -29.5t28.5 -70.5q0 -40 -28.5 -69.5t-69.5 -29.5t-70 29.5t-29 69.5z" />
<glyph unicode=";" horiz-adv-x="292" d="M6 -135q0 30 28.5 61.5t39.5 65.5q-23 26 -23 61q0 41 29.5 70t69.5 29q41 0 70.5 -29t29.5 -70q0 -13 -10 -51.5t-28 -88t-53 -87t-77 -37.5q-34 0 -55 23.5t-21 52.5zM51 791q0 41 29.5 69.5t69.5 28.5q41 0 70.5 -28.5t29.5 -69.5t-29.5 -70t-70.5 -29 q-40 0 -69.5 29.5t-29.5 69.5z" />
<glyph unicode="&#x3c;" horiz-adv-x="589" d="M49 750q0 36 29 59l293 231q23 17 47 17q26 0 51 -19.5t25 -56.5q0 -34 -29 -59l-219 -172l219 -177q29 -29 29 -59q0 -27 -21.5 -50.5t-54.5 -23.5q-28 0 -47 17l-293 233q-29 23 -29 60z" />
<glyph unicode="=" horiz-adv-x="851" d="M39 299q0 32 22 54t54 22h590q32 0 53.5 -22t21.5 -54q0 -31 -21.5 -52.5t-53.5 -21.5h-590q-32 0 -54 21.5t-22 52.5zM39 565q0 31 22 52.5t54 21.5h590q32 0 53.5 -21.5t21.5 -52.5q0 -32 -21.5 -54t-53.5 -22h-590q-32 0 -54 22t-22 54z" />
<glyph unicode="&#x3e;" horiz-adv-x="593" d="M115 514q0 37 28 59l219 177l-219 172q-28 28 -28 59q0 27 21 51.5t54 24.5q26 0 48 -17l292 -231q29 -23 29 -59q0 -37 -29 -60l-292 -233q-23 -17 -48 -17t-50 19t-25 55z" />
<glyph unicode="?" horiz-adv-x="589" d="M39 1192q0 38 17.5 80.5t49 80t83 62.5t112.5 25q107 0 190.5 -80.5t83.5 -206.5q0 -68 -25 -130t-60.5 -110.5t-70.5 -96t-60 -104.5t-25 -118q0 -1 1.5 -13.5t2 -24.5t-2 -28.5t-8.5 -29t-19.5 -23.5t-33.5 -14q-7 -2 -23.5 0.5t-37.5 18t-25 42.5q-6 37 -6 72 q0 78 25 148.5t60.5 121.5t71 97.5t60.5 95.5t25 96q0 59 -37 97t-86 38q-42 0 -75 -27t-36 -75q-3 -29 -24.5 -49.5t-50.5 -20.5q-33 0 -54.5 22.5t-21.5 53.5zM180 63q0 41 29.5 70t69.5 29q41 0 69.5 -29t28.5 -70t-28.5 -69.5t-69.5 -28.5q-40 0 -69.5 28.5t-29.5 69.5z " />
<glyph unicode="@" horiz-adv-x="1476" d="M139 594q0 126 50.5 238.5t133.5 190.5t193.5 123.5t228.5 45.5q117 0 220.5 -42t175.5 -112.5t113.5 -165t41.5 -198.5q0 -109 -45.5 -215.5t-119 -173t-150.5 -66.5q-74 0 -121 57q-65 -48 -158 -51q-127 0 -224 103.5t-97 261.5q0 154 96 266.5t238 112.5 q55 0 119 -27q19 37 63 37q32 0 54 -22.5t22 -53.5v-495q0 -39 8 -39q16 0 43.5 24t55 63t47.5 98.5t20 119.5q0 155 -118.5 261.5t-283.5 106.5q-119 0 -222.5 -57.5t-167.5 -161.5t-64 -229t67 -231t187 -169t266 -63q116 0 229 42t203 118q24 18 49 18q27 0 51.5 -20 t24.5 -56q0 -34 -27 -57q-111 -94 -247.5 -145t-282.5 -51q-141 0 -266 49t-214 132t-140.5 196t-51.5 237zM532 590q0 -94 52.5 -153.5t117.5 -59.5q52 0 85.5 35.5t33.5 83.5v262q-34 59 -106 59q-79 0 -131 -68.5t-52 -158.5z" />
<glyph unicode="A" horiz-adv-x="972" d="M53 68q0 14 4 18l359 1401q18 57 73 57q31 0 48 -12.5t26 -44.5l359 -1401q7 -18 -5 -50t-49 -42q-10 0 -27.5 -0.5t-38 14t-26.5 41.5l-96 375h-381l-96 -375q-17 -57 -74 -57q-8 0 -18 2.5t-25 9t-24.5 23.5t-8.5 41zM338 573h303l-152 592z" />
<glyph unicode="B" horiz-adv-x="1013" d="M125 68v1400q0 29 22 52.5t54 23.5h252q167 0 287 -117.5t120 -289.5v-2q0 -96 -44 -182t-116 -140q70 -37 118 -91t69 -110t29 -98t8 -80q0 -167 -115 -296t-297 -146h-311q-29 0 -52.5 22t-23.5 54zM276 143h230q112 9 189 93.5t77 197.5q0 112 -67 191 q-30 36 -104.5 70t-131.5 34h-193v-586zM276 881h162q51 0 106 19.5t87 49.5q37 35 58.5 84.5t21.5 100.5v2q0 105 -75.5 180.5t-182.5 75.5h-177v-512z" />
<glyph unicode="C" horiz-adv-x="1042" d="M94 669.5v49v47.5v47v48.5t0.5 43.5t1 46t2 41t4 44t5.5 40t7.5 44t10 40.5t12.5 43.5q50 150 162.5 244t267.5 94q196 0 324 -139q20 -20 20 -51q0 -35 -22.5 -55.5t-52.5 -20.5q-19 0 -37 12t-36.5 29t-41.5 33.5t-63 28.5t-91 12q-43 0 -83 -11t-84.5 -43.5t-76.5 -85 t-54 -144t-23 -210.5v-131q0 -203 12 -287q31 -214 162 -297q65 -41 147 -41h2q179 0 228 148l3 7q4 8 8.5 14.5t12.5 14.5t20 12.5t27 4.5q26 0 51 -20.5t25 -55.5q0 -10 -8 -36.5t-34 -68.5t-64.5 -79t-109.5 -64t-159 -28h-2q-74 0 -139 22t-110.5 56t-83 80t-60 89 t-37.5 89q-7 21 -12.5 44t-10 40.5t-7.5 44t-5.5 40.5t-4 44t-2 41t-1 46t-0.5 43.5z" />
<glyph unicode="D" horiz-adv-x="1075" d="M125 68v1400q0 29 22 52.5t54 23.5h245q77 0 151 -25.5t142 -76.5t122.5 -134.5t84.5 -191.5q39 -142 39 -336q0 -525 -276 -708q-122 -80 -263 -80h-245q-29 0 -52.5 22t-23.5 54zM276 143h170q111 0 205.5 74.5t139.5 220.5q43 135 43 342q0 395 -183 539 q-90 74 -205 74h-170v-1250z" />
<glyph unicode="E" horiz-adv-x="958" d="M125 68v1400q0 29 22 52.5t54 23.5h551q31 0 53 -22.5t22 -53.5t-22 -53t-53 -22h-476v-537h435q31 0 53 -22.5t22 -53.5q0 -32 -22 -53.5t-53 -21.5h-435v-562h476q31 0 53 -22t22 -53t-22 -53.5t-53 -22.5h-551q-29 0 -52.5 22t-23.5 54z" />
<glyph unicode="F" horiz-adv-x="958" d="M125 68v1400q0 29 22 52.5t54 23.5h551q31 0 53 -22.5t22 -53.5t-22 -53t-53 -22h-476v-537h435q31 0 53 -22.5t22 -53.5q0 -32 -22 -53.5t-53 -21.5h-435v-637q0 -31 -22 -53.5t-53 -22.5t-53.5 22.5t-22.5 53.5z" />
<glyph unicode="G" horiz-adv-x="1056" d="M94 768q0 113 1 161.5t11.5 129t32.5 147.5q48 150 161 244t269 94q197 0 324 -141q20 -20 20 -51q0 -33 -23.5 -54.5t-51.5 -21.5q-20 0 -38.5 12t-36.5 29.5t-41 34.5t-62.5 29t-90.5 12q-43 0 -83 -11t-85 -43.5t-77.5 -85t-54.5 -144t-23 -210.5v-131v-19 q0 -60 0.5 -91.5t3.5 -89.5t9.5 -93.5t19 -84.5t30.5 -82t46.5 -67t64.5 -57q67 -41 149 -41q117 0 180.5 63.5t63.5 213.5q0 133 2 201h-344q-32 0 -54 21.5t-22 53.5q0 31 22 53.5t54 22.5h420q29 0 52.5 -22t23.5 -54q-2 -98 -2 -276q0 -206 -104.5 -317t-291.5 -111 q-74 0 -139 21.5t-111 55.5t-83.5 80t-59.5 89.5t-37 89.5q-22 68 -32.5 148.5t-11.5 129t-1 162.5z" />
<glyph unicode="H" horiz-adv-x="1011" d="M127 68v1400q0 31 22 53.5t54 22.5q31 0 53.5 -22.5t22.5 -53.5v-610h450v610q0 31 22.5 53.5t53.5 22.5q32 0 54 -22.5t22 -53.5v-1400q0 -31 -22 -53.5t-54 -22.5q-31 0 -53.5 22.5t-22.5 53.5v639h-450v-639q0 -31 -22.5 -53.5t-53.5 -22.5q-32 0 -54 22.5t-22 53.5z " />
<glyph unicode="I" horiz-adv-x="407" d="M125 68v1400q0 31 22.5 53.5t53.5 22.5t53 -22.5t22 -53.5v-1400q0 -31 -22 -53.5t-53 -22.5t-53.5 22.5t-22.5 53.5z" />
<glyph unicode="J" horiz-adv-x="956" d="M55 186q0 27 20 51.5t56 24.5q20 0 38 -12.5t35 -30t39.5 -34.5t62.5 -29.5t93 -12.5q69 0 124 25.5t86.5 66t48 85.5t16.5 90v983h-289q-31 0 -53.5 22t-22.5 53t22.5 53.5t53.5 22.5h365q30 0 52.5 -21.5t22.5 -54.5v-1058q0 -75 -28.5 -148.5t-80.5 -134t-135 -98 t-182 -37.5q-201 0 -325 145q-19 19 -19 49z" />
<glyph unicode="K" horiz-adv-x="946" d="M125 68v1400q0 31 22.5 53.5t53.5 22.5q32 0 53.5 -22.5t21.5 -53.5v-516l402 559q23 33 61 33q3 0 8 -1t18 -6t22.5 -12t17.5 -22t8 -35q0 -26 -12 -43l-314 -440l359 -889q8 -25 -1.5 -55.5t-41.5 -42.5q-21 -12 -53.5 -1t-44.5 42l-322 801l-107 -148v-624 q0 -31 -21.5 -53.5t-53.5 -22.5q-31 0 -53.5 22.5t-22.5 53.5z" />
<glyph unicode="L" horiz-adv-x="858" d="M125 68v1400q0 31 22.5 53.5t53.5 22.5t53 -22.5t22 -53.5v-1325h476q31 0 53 -22t22 -53t-22 -53.5t-53 -22.5h-551q-29 0 -52.5 22t-23.5 54z" />
<glyph unicode="M" horiz-adv-x="1140" d="M127 68v1400q-1 42 29 62q20 13 43 14q11 0 22 -4q35 -10 49 -39l297 -639l297 639q22 43 70 43q27 0 51 -17.5t25 -58.5v-1400q0 -31 -22.5 -53.5t-53.5 -22.5q-32 0 -54 22.5t-22 53.5v1060l-221 -475q-21 -49 -70 -49q-28 0 -41 10.5t-26 38.5l-224 475v-1060 q0 -31 -21.5 -53.5t-51.5 -22.5q-32 0 -54 22.5t-22 53.5z" />
<glyph unicode="N" horiz-adv-x="978" d="M125 68v1400q0 42 30 62q20 14 44 15q11 1 21 -3q36 -10 50 -45l426 -1044v1015q0 31 22 53.5t54 22.5q31 0 53.5 -22.5t22.5 -53.5v-1400q0 -42 -30 -62q-21 -14 -45 -15q-11 -1 -21 3q-36 10 -50 45l-426 1044v-1015q0 -31 -21.5 -53.5t-53.5 -22.5q-31 0 -53.5 22.5 t-22.5 53.5z" />
<glyph unicode="O" horiz-adv-x="1146" d="M94 768q0 113 1 161.5t11.5 129t32.5 147.5q48 150 161 244t269 94q75 0 141 -21.5t112.5 -55.5t84.5 -80t61 -90t38 -91q20 -62 30 -132.5t11.5 -118.5t1.5 -142q0 -224 -9 -309q-29 -276 -181 -407q-26 -22 -54 -40q-105 -67 -236 -67q-156 0 -269 93.5t-161 244.5 q-22 68 -32.5 148.5t-11.5 129t-1 162.5zM246 749q0 -60 0.5 -91.5t3.5 -89.5t9.5 -93.5t19 -84.5t30.5 -82t46.5 -67t64.5 -57q71 -43 149 -43q44 0 84.5 10.5t86.5 43t79 85t55 145t23 214.5v174q0 52 -0.5 80.5t-3.5 82.5t-9.5 89t-19 82.5t-30.5 80.5t-46.5 66t-64.5 56 q-65 43 -154 43q-43 0 -83 -11t-85 -43.5t-77.5 -85t-54.5 -144t-23 -210.5v-131v-19z" />
<glyph unicode="P" horiz-adv-x="940" d="M127 68v1400q0 29 21 52.5t53 23.5h219q185 0 311.5 -128.5t126.5 -307.5v-2q0 -184 -129.5 -311t-308.5 -127h-144v-600q0 -31 -21.5 -53.5t-53.5 -22.5q-31 0 -52.5 22.5t-21.5 53.5zM276 819h144q72 0 137.5 35t108 102.5t43.5 151.5q0 112 -81.5 198.5t-207.5 86.5 h-144v-574z" />
<glyph unicode="Q" horiz-adv-x="1153" d="M94 764q0 114 1 162.5t11.5 129t32.5 148.5q48 149 160.5 242.5t269.5 93.5q93 0 171 -31.5t129.5 -84t84 -107t52.5 -113.5q20 -63 30 -133.5t11.5 -118.5t1.5 -141q0 -11 1 -73v-53v-31q-1 -21 -3.5 -79t-7 -87t-13 -80t-21.5 -85t-32.5 -75t-44.5 -76l104 -176 q10 -15 10 -39t-8 -40.5t-22 -25t-23 -11.5t-22 -5h-5q-36 0 -61 45l-84 141q-112 -73 -248 -73q-156 0 -269 93.5t-161 244.5q-22 67 -32.5 147.5t-11.5 129t-1 161.5zM246 745q0 -59 0.5 -90.5t3.5 -89t9.5 -93t19 -84.5t30.5 -82t46.5 -67t64.5 -57q66 -43 149 -43 q95 0 170 54l-112 190q-11 28 -11 37q0 24 10.5 40.5t25 23.5t24.5 9.5t16 2.5q45 0 66 -37l82 -140q27 56 40 129.5t15 133t2 189.5v40q0 60 -1 94t-5.5 96t-15.5 104t-29.5 91.5t-49.5 87t-73 64.5q-65 43 -154 43q-43 0 -83 -11t-85 -44t-77.5 -86t-54.5 -144.5 t-23 -210.5v-131v-19z" />
<glyph unicode="R" d="M125 68v1400q0 29 22 52.5t54 23.5h295q167 0 288 -117.5t121 -289.5v-2q-2 -141 -90 -251.5t-229 -142.5l260 -645q9 -24 -1 -55t-42 -43q-21 -12 -53.5 -1t-44.5 42l-277 690h-152v-661q0 -31 -22 -53.5t-53 -22.5t-53.5 22.5t-22.5 53.5zM276 881h207q56 0 102.5 16.5 t77 43t51.5 60.5t30.5 67.5t9.5 66.5v2q0 105 -75.5 180.5t-182.5 75.5h-220v-512z" />
<glyph unicode="S" horiz-adv-x="987" d="M106 1157q0 160 107 273.5t268 113.5h2q105 -1 199.5 -53.5t157.5 -138.5q14 -21 14 -45q0 -25 -19 -50.5t-57 -25.5q-36 0 -61 31q-44 61 -107 96t-127 35h-4q-96 0 -158.5 -68.5t-62.5 -167.5q0 -53 21 -100t44 -75.5t69 -59.5t65 -41t63 -30q7 -4 10 -5 q54 -25 89 -43.5t83.5 -54.5t83.5 -78q102 -120 105 -275v-4q0 -105 -48 -195.5t-138 -147t-203 -56.5q-111 0 -211 56t-168 151q-14 28 -14 43q0 20 7.5 34.5t18.5 22t22.5 12t18.5 5.5l8 1q41 0 62 -30q47 -65 114.5 -105.5t141.5 -40.5q107 0 172 75t65 175v2 q-1 66 -26.5 120.5t-76 93.5t-78.5 55.5t-79 40.5l-12 6q-1 0 -24.5 11t-37 17.5t-43 23t-49.5 31t-49 38t-49 46.5t-42 55t-35.5 65t-22.5 75t-9 86z" />
<glyph unicode="T" horiz-adv-x="993" d="M31 1468q0 31 21.5 53.5t53.5 22.5h758q32 0 54 -22.5t22 -53.5t-22 -53t-54 -22h-303v-1325q0 -31 -22 -53.5t-54 -22.5q-31 0 -53 22.5t-22 53.5v1325h-304q-32 0 -53.5 22t-21.5 53z" />
<glyph unicode="U" horiz-adv-x="1099" d="M117 410v1058q0 31 22 53.5t54 22.5q30 0 51.5 -22.5t21.5 -53.5v-1058q0 -46 17.5 -92t50 -86t87.5 -64.5t122 -24.5q69 0 124 25.5t87 66t48.5 86t16.5 89.5v1058q0 31 21.5 53.5t52.5 22.5q32 0 54 -22.5t22 -53.5v-1058q0 -75 -28.5 -148.5t-80.5 -134t-135 -98 t-182 -37.5q-100 0 -182.5 37t-134.5 97.5t-80.5 134t-28.5 149.5z" />
<glyph unicode="V" horiz-adv-x="1046" d="M49 1450q-7 19 4.5 50.5t48.5 41.5q10 0 28 0.5t38.5 -14t26.5 -41.5l286 -1116l287 1116q6 26 26.5 40t38 13.5t27.5 -0.5q37 -9 48.5 -40t4.5 -50l-358 -1401q-18 -57 -74 -57q-5 2 -17 5.5t-16 5t-12.5 5.5t-12 9t-8 13t-7.5 19z" />
<glyph unicode="W" horiz-adv-x="1185" d="M80 1460v8q0 27 20 51.5t56 24.5q28 0 49 -19t24 -48l115 -1067l152 438q1 1 6.5 10t12 17t20.5 15t32 7q1 0 7 -1t10 -1.5t11 -2.5t12.5 -5.5t12 -8.5t11.5 -12.5t8 -17.5l152 -436l114 1065q3 29 25 48t51 19q31 0 52.5 -22.5t21.5 -53.5v-8l-150 -1401 q-5 -19 -10 -30.5t-19.5 -22.5t-37.5 -14q-61 0 -80 51l-191 549l-190 -549q-20 -51 -72 -51h-8q-30 5 -47 18.5t-21 48.5z" />
<glyph unicode="X" horiz-adv-x="1099" d="M88 68q0 18 8 34l348 678l-335 654q-14 22 -6 54t38 48q22 14 54.5 5t46.5 -38l293 -571l292 571l4 5q4 6 9 11.5t12.5 11.5t18.5 9.5t24 3.5q20 0 47 -19t27 -57q0 -18 -8 -34l-340 -668l340 -664q14 -22 5.5 -54t-38.5 -48q-22 -14 -54.5 -5t-46.5 38l-299 581 l-297 -581l-4 -5q-4 -6 -9 -11.5t-12 -11.5t-18 -9.5t-24 -3.5q-20 0 -46.5 19t-29.5 57z" />
<glyph unicode="Y" horiz-adv-x="1017" d="M61.5 1487.5q7.5 32.5 38.5 48.5q21 13 54 4.5t47 -39.5l293 -590l292 590l2 3q2 3 3.5 5t4 6t5.5 6.5t7 6.5t9 6.5t10.5 5t12.5 3.5t14 1q22 0 49 -19t27 -57q0 -24 -8 -32l-353 -713v-655q0 -31 -21.5 -53.5t-53.5 -22.5q-31 0 -53.5 22.5t-22.5 53.5v655l-352 713 q-12 19 -4.5 51.5z" />
<glyph unicode="Z" horiz-adv-x="1052" d="M84 68q0 16 8 32l305 627h-168q-31 0 -53 22.5t-22 53.5q0 32 22 54t53 22h242l252 514h-528q-32 0 -54 22t-22 53t22.5 53.5t53.5 22.5h649q32 0 51 -19t22 -38l3 -19q0 -14 -9 -32l-272 -557h162q32 0 54 -22.5t22 -53.5t-22 -53.5t-54 -22.5h-236l-284 -584h569 q31 0 53.5 -22t22.5 -53t-22.5 -53.5t-53.5 -22.5h-690q-31 0 -50 19t-22 38z" />
<glyph unicode="[" horiz-adv-x="555" d="M137 2v1544q0 30 21.5 53t54.5 23h152q31 0 53 -22t22 -54q0 -31 -22 -53.5t-53 -22.5h-76v-1392h76q31 0 53 -22.5t22 -53.5q0 -32 -22 -54t-53 -22h-152q-29 0 -52.5 22t-23.5 54z" />
<glyph unicode="\" horiz-adv-x="653" d="M77.5 1477q-0.5 17 13.5 37.5t40 27.5q10 0 27.5 0.5t38 -14t26.5 -41.5l361 -1401q0 -10 0.5 -27t-14 -37.5t-40.5 -27.5q-10 0 -27.5 -0.5t-38 14t-26.5 41.5l-360 1401q0 10 -0.5 27z" />
<glyph unicode="]" horiz-adv-x="555" d="M137 2q0 31 22.5 53.5t53.5 22.5h76v1392h-76q-31 0 -53.5 22.5t-22.5 53.5q0 32 22.5 54t53.5 22h152q29 0 52 -21.5t23 -54.5v-1544q0 -30 -21 -53t-54 -23h-152q-31 0 -53.5 22t-22.5 54z" />
<glyph unicode="^" horiz-adv-x="839" d="M307 1413q0 30 19 51l135 154q24 24 57 24t55 -24l136 -154q18 -24 18 -51q0 -26 -20.5 -50t-55.5 -24q-34 0 -57 25l-76 88l-78 -88q-25 -25 -57 -25q-28 0 -52 19.5t-24 54.5z" />
<glyph unicode="_" horiz-adv-x="903" d="M45 -31q0 31 22 53.5t54 22.5h686q32 0 54 -22.5t22 -53.5t-22 -53t-54 -22h-686q-32 0 -54 22t-22 53z" />
<glyph unicode="`" horiz-adv-x="667" d="M246 1538q-19 42 10 75.5t59 28.5q1 0 8.5 -1t14 -3t15.5 -6t17 -13t13 -22q29 -65 87.5 -111t133.5 -56q29 -3 47.5 -24.5t18.5 -49.5q0 -32 -22.5 -54t-53.5 -22q-24 0 -64.5 12t-94 38t-106 80.5t-83.5 127.5z" />
<glyph unicode="a" horiz-adv-x="1038" d="M88 246q0 52 19 98.5t47 80t74.5 65t88 51.5t102 41t101 32.5t101 27.5t86.5 24v206q0 71 -57.5 118.5t-137.5 47.5q-72 0 -136.5 -35.5t-105.5 -97.5q-20 -33 -61 -33q-3 0 -8 1t-18.5 6t-23.5 12t-18 22t-8 35q0 23 28 62t75 80t121.5 70.5t154.5 29.5q152 0 249 -95.5 t97 -222.5v-694q0 -10 1.5 -18t3.5 -12.5t4 -7.5t3 -5l2 -2q3 -2 10.5 2t17.5 9.5t18 5.5q36 0 55.5 -24t19.5 -52q0 -42 -39 -67t-82 -25q-53 0 -102 42t-53 109q-49 -58 -140.5 -108t-189.5 -50q-134 0 -216.5 81.5t-82.5 189.5zM240 246q0 -53 42 -86t105 -33 q89 0 176 58.5t144 138.5v184q-17 -5 -52 -14q-47 -13 -72 -20t-70.5 -20.5t-71.5 -24t-62.5 -26.5t-57.5 -32t-41.5 -35.5t-30 -42t-9.5 -47.5z" />
<glyph unicode="b" horiz-adv-x="1013" d="M127 162v1304q0 31 22 53.5t54 22.5q30 0 51.5 -22.5t21.5 -53.5v-352q36 43 91.5 64.5t113.5 21.5q88 0 171 -41t148.5 -115t105.5 -188.5t40 -251.5q0 -170 -65 -312.5t-180.5 -226t-256.5 -83.5q-93 0 -169.5 36.5t-127.5 92.5q-20 20 -20 51zM276 195q77 -62 168 -62 q102 0 184 67t125.5 174t43.5 230q0 187 -90.5 316t-225.5 129q-74 0 -130 -43.5t-75 -110.5v-700z" />
<glyph unicode="c" horiz-adv-x="972" d="M68 586q0 169 65 308.5t174 217.5t236 78q65 0 123 -21.5t96.5 -53t66.5 -66.5t40 -62t10 -39q0 -1 -1 -6.5l-2 -11t-4.5 -13.5t-8.5 -14t-13 -13t-19 -11q-30 -13 -58 -1t-40 40q-26 57 -77.5 89.5t-112.5 32.5q-91 0 -166.5 -64.5t-116.5 -168t-41 -221.5 q0 -121 41.5 -224.5t120.5 -167t178 -63.5q64 0 115.5 27t83.5 69q29 29 59 29t53 -22t23 -54q0 -24 -25.5 -57.5t-68 -65.5t-107.5 -54.5t-133 -22.5q-94 0 -182 42.5t-157 119t-110.5 192.5t-41.5 252z" />
<glyph unicode="d" horiz-adv-x="1099" d="M74 547q0 179 58.5 327.5t168.5 237t250 88.5q52 0 106 -23.5t93 -62.5v352q0 31 22 53.5t53 22.5t53.5 -22.5t22.5 -53.5v-1280q0 -10 1.5 -18t3.5 -12.5t4 -7t4 -4.5l1 -1q6 -3 21 6.5t27 8.5q35 0 54 -24t19 -50q0 -43 -39 -67.5t-82 -24.5q-51 0 -97 37.5t-56 103.5 q-38 -46 -83 -77.5t-86.5 -44.5t-67.5 -17t-48 -4h-6q-180 3 -288.5 160t-108.5 397zM225 547q0 -175 68 -290t180 -116h4q77 0 150 55t123 136v563q-15 66 -71 110t-128 44q-97 -1 -172.5 -71t-114.5 -183t-39 -248z" />
<glyph unicode="e" horiz-adv-x="974" d="M70 588q0 166 54 302.5t155 218t229 81.5q102 0 188 -54.5t138 -153t53 -218.5v-4q0 -71 -18 -109.5t-64 -38.5h-584v-24q0 -203 98 -329t238 -126q48 0 85 12.5t58.5 30.5t38.5 36.5t35.5 31t38.5 12.5q29 0 52.5 -21t23.5 -55q0 -24 -26 -57t-68 -65t-106.5 -54 t-131.5 -22q-98 0 -186.5 43.5t-155 120.5t-106 192t-39.5 250zM242 764h493q-1 65 -23 121t-58 89.5t-81 52.5q-31 13 -64 13q-15 0 -30 -2q-49 -8 -93.5 -36.5t-83 -90t-60.5 -147.5z" />
<glyph unicode="f" horiz-adv-x="694" d="M57 1124q0 31 22.5 53.5t53.5 22.5h103q13 157 137 255.5t293 98.5q56 0 112 -12q22 -9 32 -15t19 -21t9 -38l-2 -16q-6 -30 -22.5 -44.5t-51.5 -14.5q-5 0 -34 6t-62 6q-113 0 -190.5 -61t-88.5 -144h252q31 0 53.5 -22.5t22.5 -53.5t-22.5 -53t-53.5 -22h-254v-981 q0 -31 -21.5 -53.5t-52.5 -22.5q-32 0 -53.5 22.5t-21.5 53.5v981h-103q-31 0 -53.5 22t-22.5 53z" />
<glyph unicode="g" horiz-adv-x="1032" d="M72 543q0 83 15.5 169t50.5 171t85 150.5t125.5 106t165.5 40.5q73 0 140.5 -35t103.5 -90v49q0 31 22.5 53.5t53.5 22.5q32 0 53.5 -22.5t21.5 -53.5v-1190q-9 -162 -130 -270.5t-292 -108.5q-178 0 -317 115q-27 27 -27 59q0 28 20.5 52t55.5 24q18 0 43.5 -15.5 t50.5 -33.5t72 -33.5t102 -15.5q107 0 186 65t85 166v176q-48 -55 -119 -90t-147 -35q-188 0 -304 159t-116 415zM223 543q0 -189 74 -305.5t195 -116.5q78 0 150.5 51.5t115.5 134.5v408q0 129 -73 221t-171 92q-73 0 -131.5 -47.5t-91.5 -122t-50.5 -156t-17.5 -159.5z " />
<glyph unicode="h" horiz-adv-x="1052" d="M127 68v1400q0 31 22 53.5t54 22.5q31 0 53.5 -22.5t22.5 -53.5v-448q55 78 140 130t187 52q146 0 247.5 -98t104.5 -238v-798q0 -31 -21.5 -53.5t-53.5 -22.5q-31 0 -53.5 22.5t-22.5 53.5v796q-2 72 -56.5 129.5t-144.5 57.5q-100 0 -191.5 -76.5t-135.5 -200.5v-706 q0 -31 -22.5 -53.5t-53.5 -22.5q-32 0 -54 22.5t-22 53.5z" />
<glyph unicode="i" horiz-adv-x="606" d="M53 1124q0 31 21.5 53.5t52.5 22.5h246q30 0 53 -21.5t23 -54.5v-1056q0 -31 -22 -53.5t-54 -22.5q-31 0 -53.5 22.5t-22.5 53.5v981h-170q-31 0 -52.5 21.5t-21.5 53.5zM279 1446q0 40 28.5 69t69.5 29t69.5 -29t28.5 -69q0 -41 -28.5 -70.5t-69.5 -29.5t-69.5 29.5 t-28.5 70.5z" />
<glyph unicode="j" horiz-adv-x="692" d="M-82 -334q0 3 1 8t6 18.5t12 23.5t22 18t35 8q12 0 62 -23.5t100 -23.5q95 0 162 66.5t67 160.5v1114h-168q-32 0 -54 22.5t-22 53.5q0 32 22 54t54 22h244q30 0 53 -21.5t23 -54.5v-1190q0 -153 -109.5 -265t-271.5 -112q-109 0 -203 58q-35 21 -35 63zM362 1434 q0 41 29.5 69.5t69.5 28.5q41 0 70.5 -28.5t29.5 -69.5t-29.5 -70t-70.5 -29q-40 0 -69.5 29t-29.5 70z" />
<glyph unicode="k" horiz-adv-x="878" d="M125 68v1400q0 31 22 53.5t54 22.5q31 0 53 -22.5t22 -53.5v-680l342 386q26 26 58 26q27 0 50.5 -20.5t23.5 -55.5q0 -27 -19 -51l-307 -344l377 -623q10 -15 10 -38q0 -32 -25.5 -54t-50.5 -22q-6 0 -15.5 2t-24.5 11t-23 24l-353 581l-43 -49v-493q0 -31 -22 -53.5 t-53 -22.5q-32 0 -54 22.5t-22 53.5z" />
<glyph unicode="l" horiz-adv-x="598" d="M0 1468q0 31 22.5 53.5t53.5 22.5h246q29 0 51 -21.5t22 -54.5v-1282q1 -16 4.5 -26.5t6.5 -13.5l4 -3h2q20 15 45 15q36 0 55.5 -24t19.5 -50q0 -43 -38.5 -67.5t-81.5 -24.5q-65 0 -115.5 51t-50.5 143v1207h-170q-32 0 -54 22t-22 53z" />
<glyph unicode="m" horiz-adv-x="1622" d="M98 1114q0 20 7.5 35t17.5 22.5t22 12t18.5 5.5t8.5 1q55 0 79 -59q21 -52 21 -119v-17q51 79 130.5 138t170.5 59q103 0 185.5 -58t109.5 -161q60 101 149 160t189 59q131 0 223 -87t97 -212v-834q0 -32 -21.5 -53.5t-52.5 -21.5q-32 0 -54 21.5t-22 53.5v832 q-3 61 -51 105t-119 44q-89 0 -174.5 -71t-140.5 -174v-736q0 -32 -22.5 -53.5t-53.5 -21.5t-53.5 21.5t-22.5 53.5v828q0 62 -46.5 108.5t-119.5 46.5q-92 0 -176.5 -77t-122.5 -199v-707q0 -32 -22 -53.5t-53 -21.5q-32 0 -54 21.5t-22 53.5v967q0 20 -12.5 48t-12.5 40z " />
<glyph unicode="n" horiz-adv-x="1048" d="M96 1114q0 20 8 35t18 22.5t22.5 12t19 5.5t8.5 1q29 0 49.5 -18t31 -48t15 -62.5t4.5 -68.5l25 39q137 162 305 162q144 0 245.5 -98t106.5 -238v-799q0 -32 -22 -53.5t-53 -21.5t-53.5 21.5t-22.5 53.5v797q-2 72 -57 129t-144 57q-101 0 -193 -76t-137 -200v-707 q0 -32 -21.5 -53.5t-53.5 -21.5q-31 0 -52.5 21.5t-21.5 53.5v965q0 21 -13.5 49.5t-13.5 40.5z" />
<glyph unicode="o" horiz-adv-x="1032" d="M76 586q0 141 29 251t74 175.5t105.5 107.5t116 57t113.5 15q41 0 80.5 -7t84.5 -25.5t83.5 -47.5t75 -76t62 -107t41.5 -145t17 -186v-43q0 -262 -122 -418.5t-322 -156.5q-58 0 -113.5 15.5t-116 57.5t-105.5 107.5t-74 175.5t-29 250zM227 586q0 -93 13 -167t36 -122 t51 -82.5t62 -51.5t63.5 -24.5t61.5 -7.5q40 0 75.5 9t76.5 38t70.5 76.5t49.5 131.5t21 196q0 324 -156 422q-1 0 -8.5 4.5t-14 7.5t-19.5 8t-26 8t-31.5 5.5t-37.5 2.5q-39 0 -74.5 -10t-75.5 -40t-69.5 -78t-48.5 -132t-19 -194z" />
<glyph unicode="p" horiz-adv-x="1017" d="M96 1104q0 19 8 34t18 22.5t22.5 12.5t19 6t8.5 1q46 0 73 -56q25 -52 25 -104v-8q39 69 115.5 118t163.5 50h4q173 0 284 -152.5t111 -404.5q0 -180 -58 -328.5t-167.5 -237t-249.5 -88.5q-55 0 -110.5 24.5t-90.5 69.5v-450q0 -31 -21.5 -53.5t-53.5 -22.5 q-31 0 -53.5 22.5t-22.5 53.5v1401q0 20 -12.5 49t-12.5 41zM272 291q10 -75 68 -122.5t133 -47.5q97 1 172 70t114.5 182.5t39.5 249.5q0 179 -68 292t-178 113h-2q-81 -1 -156.5 -70t-122.5 -170v-497z" />
<glyph unicode="q" horiz-adv-x="1069" d="M72 573q0 171 51 308.5t147 218t219 80.5q16 0 32.5 -1.5t50 -9.5t62.5 -22.5t62.5 -44.5t57.5 -70v72q0 31 22 53.5t53 22.5q32 0 54 -22.5t22 -53.5v-1491q0 -31 -22 -53.5t-54 -22.5q-31 0 -53 22.5t-22 53.5v455q-32 -49 -89.5 -73t-125.5 -24q-93 0 -177 41.5 t-148.5 116.5t-103 190.5t-38.5 253.5zM221 573q0 -207 93 -329.5t225 -122.5q81 0 141 50t74 122v401q-6 131 -83 232.5t-182 101.5q-81 0 -143.5 -65t-93.5 -167.5t-31 -222.5z" />
<glyph unicode="r" horiz-adv-x="841" d="M96 1114q0 20 7.5 35t18 22.5t22.5 12t18.5 5.5t9.5 1q50 0 74 -56.5t24 -140.5q29 54 68.5 93t73.5 58.5t74.5 30.5t61.5 13t44 2q27 0 58 -5t64.5 -16t55 -32.5t21.5 -51.5q0 -21 -18.5 -48t-57.5 -27q-10 0 -47.5 14.5t-69.5 15.5h-6q-198 -3 -322 -266v-715 q0 -32 -21.5 -53.5t-53.5 -21.5q-31 0 -53 21.5t-21 53.5v967q0 18 -12.5 47t-12.5 41z" />
<glyph unicode="s" horiz-adv-x="897" d="M92 203q0 25 20 50.5t56 25.5q38 0 59 -31q38 -47 100 -82t136 -35q93 0 146 54t53 118v2q0 27 -10 52t-21 42.5t-36.5 36.5t-38 28.5t-46 24.5t-40 17.5t-38.5 15.5t-46.5 19t-54.5 26t-63 36.5t-57 46.5t-53 61t-33 74.5t-14 91.5q0 129 94.5 222t240.5 93 q64 0 127.5 -22t106.5 -54t69.5 -65.5t26.5 -57.5q0 -26 -19.5 -50.5t-56.5 -24.5q-20 0 -38.5 12.5t-36.5 30.5t-39.5 36t-57.5 30.5t-82 12.5q-75 0 -130.5 -46t-55.5 -117q0 -27 9 -51t21 -42t33.5 -35.5t38 -28t44 -23.5t40.5 -18l39 -15q33 -13 50 -20t57 -27t64 -37.5 t57 -47.5t52 -61t33.5 -74.5t14.5 -91.5v-2q0 -129 -97.5 -226t-252.5 -97q-103 0 -197 48t-157 128q-17 23 -17 47z" />
<glyph unicode="t" horiz-adv-x="821" d="M59 1124q0 31 22 53.5t54 22.5h101v268q0 31 22 53.5t53 22.5q32 0 54 -22.5t22 -53.5v-268h254q31 0 53.5 -22.5t22.5 -53.5q0 -32 -22.5 -53.5t-53.5 -21.5h-254v-859q3 -28 24.5 -38.5t41.5 -10.5q41 0 81 25.5t66 60.5q23 33 62 33q3 0 8 -1t18 -6t23 -12t18 -22 t8 -35q0 -22 -22.5 -54t-59.5 -63t-91.5 -53t-110.5 -22q-98 0 -156.5 59.5t-60.5 136.5v861h-101q-32 0 -54 21.5t-22 53.5z" />
<glyph unicode="u" horiz-adv-x="1112" d="M92 1114q0 20 7.5 35t18 22.5t22.5 12t18.5 5.5t9.5 1q33 0 57 -29t33.5 -65t9.5 -70v-731q0 -68 49 -115t121 -47q144 0 336 197v784q0 32 22.5 54t53.5 22t53.5 -22t22.5 -54v-936q0 -8 1 -14t2 -10.5t2.5 -8t3 -5.5t2.5 -3.5t2 -2.5l1 -1q5 -3 20 7t25 10 q36 0 56 -24.5t20 -51.5q0 -42 -39 -67t-82 -25q-53 0 -100 38.5t-60 108.5l-26 -18q-162 -127 -316 -127q-138 0 -229.5 91t-91.5 220v731q0 20 -12.5 48t-12.5 40z" />
<glyph unicode="v" horiz-adv-x="993" d="M59 1092q-8 22 3 52.5t44 41.5q25 9 55.5 -3t41.5 -44l289 -846l288 846q1 1 5 8t8.5 13.5t12.5 13.5t20 11.5t26 4.5q26 0 51 -20t25 -56l-4 -22l-361 -1057l-3 -5q-3 -6 -6 -11t-9 -11.5t-13 -11.5t-17.5 -8.5t-22.5 -3.5q-1 0 -7 1t-10 1.5t-11 2.5t-12.5 6t-12 9 t-11.5 13t-8 18z" />
<glyph unicode="w" horiz-adv-x="1396" d="M59 1092q-8 23 2.5 53t44.5 41q24 9 54.5 -3t40.5 -44l288 -846l123 360l-149 439q-8 22 3 52.5t44 41.5q24 9 54.5 -3t41.5 -44l289 -846l289 846l2 4l3.5 7t5 8.5t7 9t9 8t11.5 7.5t14.5 5t18.5 2q25 0 49.5 -20t24.5 -56q0 -18 -4 -22l-358 -1057q-1 -1 -6.5 -10.5 t-12.5 -17.5t-21 -15.5t-32 -7.5q-1 0 -7 1t-10 1.5t-11 2.5t-12.5 6t-12 9t-11.5 13t-8 18l-131 383l-131 -383q0 -1 -3 -6l-6 -10t-9 -11.5t-13 -11.5t-17.5 -8.5t-23.5 -3.5l-7 1q-8 1 -12.5 2t-13.5 4.5t-15 8.5t-12.5 14t-10.5 21z" />
<glyph unicode="x" horiz-adv-x="1003" d="M86 59q0 20 12 39l316 498l-303 479q-13 16 -13 39q0 20 8 35t18 22.5t22.5 12t19 5.5t8.5 1q43 0 64 -35l270 -428l272 428q21 35 64 35q3 0 8 -1t18.5 -6t23.5 -12t18 -22t8 -35q0 -23 -13 -39l-309 -489l309 -488q6 -7 9.5 -21.5t1.5 -17.5q0 -31 -18.5 -50t-37.5 -22 l-18 -3q-45 0 -66 34l-276 437l-277 -437q-18 -34 -63 -34q-3 0 -8 1t-18.5 5.5t-23.5 11.5t-18 22t-8 35z" />
<glyph unicode="y" horiz-adv-x="1021" d="M92 1104q0 19 7.5 34t17.5 22.5t22 12.5t18.5 6t8.5 1q26 0 47 -17t32 -43.5t17 -53.5t6 -52v-707q6 -79 68 -133.5t147 -54.5q106 0 185.5 82.5t79.5 199.5v703q0 31 21.5 53.5t53.5 22.5q31 0 52.5 -22.5t21.5 -53.5v-1174q0 -77 -31 -149t-85.5 -126.5t-134.5 -87 t-171 -32.5q-176 0 -315 115q-27 27 -27 59q0 28 19.5 52t54.5 24q19 0 44 -15.5t49.5 -33.5t71 -33.5t103.5 -15.5q117 0 195 72t78 171v138q-121 -101 -265 -101q-135 0 -244 90.5t-122 243.5v713q0 20 -12.5 49t-12.5 41z" />
<glyph unicode="z" horiz-adv-x="952" d="M61 59q0 20 11 39l575 942h-411q-31 0 -53.5 21.5t-22.5 52.5q0 32 22.5 54t53.5 22h546q30 0 48.5 -18.5t23 -33.5t4.5 -24q0 -19 -12 -39l-576 -942h531q32 0 54 -21.5t22 -52.5q0 -32 -22 -53.5t-54 -21.5h-664q-31 0 -49.5 15.5t-22.5 30t-4 29.5z" />
<glyph unicode="{" horiz-adv-x="550" d="M27 831q0 6 2.5 17t13.5 28t29 25l32 17q41 212 41 415q0 56 -2.5 104.5t-5 76t-2.5 32.5q0 29 19.5 52.5t56.5 23.5h151q31 0 53.5 -22t22.5 -54q0 -31 -22.5 -53.5t-53.5 -22.5h-71q4 -45 4 -137q0 -156 -21 -311.5t-34 -187.5q15 -27 37 -205t22 -353q0 -99 -6 -198 h69q31 0 53.5 -22.5t22.5 -53.5q0 -32 -22.5 -54t-53.5 -22h-151q-34 0 -55 23.5t-21 52.5q0 2 1.5 17t3.5 41t4.5 58t4 74.5t1.5 83.5q0 233 -44 469l-36 21l-10 8q-11 7 -13.5 10t-9 10.5t-8.5 16.5t-2 20z" />
<glyph unicode="|" horiz-adv-x="448" d="M129 33v1519q0 31 22.5 52.5t53.5 21.5t53.5 -21.5t22.5 -52.5v-1519q0 -31 -22.5 -52.5t-53.5 -21.5t-53.5 21.5t-22.5 52.5z" />
<glyph unicode="}" horiz-adv-x="552" d="M57 2q0 31 22.5 53.5t53.5 22.5h70q-6 99 -6 198q0 173 22 352t37 206q-13 32 -34 187.5t-21 311.5q0 92 4 137h-72q-31 0 -53.5 22.5t-22.5 53.5q0 32 22.5 54t53.5 22h152q35 0 55 -23t20 -53q0 -5 -2.5 -32.5t-5 -76t-2.5 -104.5q0 -203 41 -415l33 -17q2 -2 11.5 -9 t13 -10t9.5 -10.5t8 -16.5t3 -21q0 -6 -2 -16t-13 -27t-28 -25l-37 -21q-43 -231 -43 -469q0 -41 1.5 -83.5t3.5 -74.5t4 -58t3.5 -41t1.5 -17q0 -29 -19.5 -52.5t-55.5 -23.5h-152q-31 0 -53.5 22t-22.5 54z" />
<glyph unicode="~" horiz-adv-x="755" d="M234 1527q9 60 65 95q33 20 80 20q40 0 77 -19t58.5 -42t44 -42t37.5 -19q12 0 12 8q-1 3 -3 8t-3.5 19t0.5 26.5t11.5 27t27.5 23.5q38 18 77.5 -8t39.5 -96q0 -65 -47 -111.5t-115 -46.5q-35 0 -69 14.5t-50 26.5t-45.5 40.5t-30.5 29.5q7 -18 7 -31q0 -27 -21 -50.5 t-55 -23.5q-46 0 -76.5 45.5t-21.5 105.5z" />
<glyph horiz-adv-x="784" />
<glyph horiz-adv-x="972" />
<glyph horiz-adv-x="972" />
<glyph horiz-adv-x="921" d="M70 59l4 21l98 323q2 2 2 7l223 729q1 1 6.5 10.5t12 18.5t21 16.5t32.5 7.5q2 0 12 -2t17 -4t16.5 -7t16.5 -15.5t12 -24.5l323 -1059q0 -10 1 -27.5t-12.5 -38t-39.5 -28.5q-19 -6 -50.5 4t-43.5 47l-82 272h-338l-82 -272q-1 -1 -7 -10.5t-12.5 -18.5t-21.5 -16.5 t-33 -7.5q-26 0 -50.5 19.5t-24.5 55.5zM348 459h244l-123 399z" />
<glyph horiz-adv-x="804" d="M82 59v1057q0 29 22 52.5t54 23.5h254q132 0 229.5 -95t97.5 -231v-2q0 -141 -106 -239q72 -47 112.5 -124t40.5 -165q0 -142 -96 -241.5t-231 -110.5h-301q-30 0 -53 20.5t-23 54.5zM233 133h220q74 8 128 67t54 136q0 78 -47 131q-21 24 -72.5 49t-91.5 25h-191v-408z M233 690h168q28 0 68.5 12t65.5 37q53 50 53 125v2q0 73 -52.5 123.5t-123.5 50.5h-179v-350z" />
<glyph horiz-adv-x="894" d="M70 518q0 147 8 207q33 250 221 348q94 51 205 51q173 0 293 -108q3 -1 8 -7.5t10.5 -19.5t5.5 -28q0 -27 -20.5 -51.5t-55.5 -24.5q-17 0 -33 9t-32.5 22t-37.5 26t-56.5 22t-81.5 9q-38 0 -72.5 -7.5t-74 -31t-68 -61t-48 -104t-20.5 -153.5v-98q0 -4 -0.5 -43.5 t0 -55.5t3.5 -56.5t8.5 -62.5t16.5 -57.5t26.5 -58.5t40 -47.5t55.5 -40.5q56 -30 133 -30q56 0 95.5 11.5t58 28.5t32.5 36.5t21.5 36t23.5 27.5t39 11q27 0 51.5 -21t24.5 -55q0 -11 -7.5 -34t-31.5 -57t-60 -63t-101 -50t-146 -21q-68 0 -127.5 17.5t-101 44.5t-76 63 t-54.5 69.5t-34 67.5q-20 53 -29.5 114.5t-10.5 98.5t-1 127z" />
<glyph unicode="&#x85;" horiz-adv-x="899" d="M80 59v1057q0 29 22 52.5t54 23.5h219q60 0 120 -13.5t129.5 -54t121.5 -103.5t87 -173t35 -252q0 -108 -18.5 -198.5t-49 -152.5t-73 -109.5t-86.5 -75.5t-93.5 -46t-90 -24t-80.5 -6h-221q-31 0 -53.5 20.5t-22.5 54.5zM231 133h146q45 0 87.5 10t90 41t82 80 t57.5 134.5t23 197.5q0 107 -23 189t-57.5 129t-82.5 76.5t-90.5 39.5t-88.5 10h-144v-907z" />
<glyph horiz-adv-x="778" d="M66 59v1057q0 29 21.5 52.5t53.5 23.5h496q32 0 54 -22.5t22 -53.5t-22 -53.5t-54 -22.5h-420v-368h383q32 0 54 -22.5t22 -53.5t-22 -53.5t-54 -22.5h-383v-387h420q32 0 54 -21.5t22 -52.5q0 -32 -22 -53.5t-54 -21.5h-496q-30 0 -52.5 20.5t-22.5 54.5z" />
<glyph horiz-adv-x="806" d="M66 59v1057q0 29 21.5 52.5t53.5 23.5h496q32 0 54 -22.5t22 -53.5t-22 -53.5t-54 -22.5h-420v-368h383q32 0 54 -22.5t22 -53.5t-22 -53.5t-54 -22.5h-383v-461q0 -32 -22 -53.5t-54 -21.5q-31 0 -53 21.5t-22 53.5z" />
<glyph horiz-adv-x="927" d="M59 487v101v24v70t4.5 76.5t12.5 85.5t25 83t40.5 83t61.5 71t86 62q95 49 205 49q170 0 292 -109q25 -25 25 -55q0 -27 -20.5 -51.5t-55.5 -24.5q-20 0 -41.5 14t-40 30t-61 30t-98.5 14q-38 0 -72.5 -7.5t-74 -30.5t-68 -60t-48 -103t-20.5 -153v-98q0 -9 -0.5 -39 t0 -47.5t1.5 -50t5 -55t10.5 -53t18 -53.5t26.5 -47t37 -43.5t49 -33.5q56 -31 136 -31q102 0 157.5 41.5t55.5 147.5v133h-301q-32 0 -54 22t-22 53q0 32 22 54t54 22h376q30 0 53 -21.5t23 -54.5q0 -37 -1 -104.5t-1 -103.5q0 -64 -17 -120t-55.5 -107.5t-112.5 -82 t-177 -30.5q-39 0 -78 6t-82.5 22t-82 40.5t-74 64.5t-61 91t-41 122.5t-16.5 156.5z" />
<glyph horiz-adv-x="806" d="M68 59v1057q0 31 22 53.5t53 22.5t53.5 -22.5t22.5 -53.5v-442h391v442q0 31 22.5 53.5t53.5 22.5t53.5 -22.5t22.5 -53.5v-1057q0 -32 -22.5 -53.5t-53.5 -21.5t-53.5 21.5t-22.5 53.5v463h-391v-463q0 -32 -22.5 -53.5t-53.5 -21.5t-53 21.5t-22 53.5z" />
<glyph horiz-adv-x="339" d="M100 59v1057q0 31 22 53.5t54 22.5q31 0 52.5 -22.5t21.5 -53.5v-1057q0 -32 -21.5 -53.5t-52.5 -21.5q-32 0 -54 21.5t-22 53.5z" />
<glyph horiz-adv-x="788" d="M37 147q0 33 23 54.5t53 21.5q21 0 41.5 -14t38.5 -31t60.5 -31t100.5 -14q115 0 177.5 58t62.5 128v721h-252q-32 0 -54 21.5t-22 52.5q0 32 22 54t54 22h328q29 0 52 -21t23 -55v-795q0 -147 -114.5 -241t-276.5 -94q-182 0 -295 110q-22 22 -22 53z" />
<glyph horiz-adv-x="755" d="M68 59v1057q0 31 21.5 53.5t53.5 22.5q31 0 53.5 -22.5t22.5 -53.5v-362l35 43q5 11 22 24l293 344q20 27 58 27q27 0 50 -20.5t23 -55.5q0 -28 -16 -49l-272 -319l315 -656q12 -24 3.5 -55t-38.5 -47q-20 -12 -53 -3.5t-49 40.5l-285 594l-86 -101v-461 q0 -32 -22.5 -53.5t-53.5 -21.5q-32 0 -53.5 21.5t-21.5 53.5z" />
<glyph horiz-adv-x="720" d="M66 59v1057q0 31 22 53.5t53 22.5q32 0 54 -22.5t22 -53.5v-983h420q32 0 54 -21.5t22 -52.5q0 -32 -22 -53.5t-54 -21.5h-496q-30 0 -52.5 20.5t-22.5 54.5z" />
<glyph horiz-adv-x="966" d="M92 59v1057q0 17 4.5 32.5t23 30t48.5 13.5q43 0 65 -39l263 -473l264 473q20 39 65 39l19 -2q19 -8 28 -14t19 -21.5t10 -38.5v-1057q0 -32 -22.5 -53.5t-53.5 -21.5t-53 21.5t-22 53.5v766l-187 -338q-23 -39 -67 -39t-66 39l-188 338v-766q0 -32 -21.5 -53.5 t-52.5 -21.5q-32 0 -54 21.5t-22 53.5z" />
<glyph horiz-adv-x="815" d="M88 59v1057q0 61 57 74q22 5 48 -5t38 -36l369 -762v729q0 31 22.5 53.5t53.5 22.5t53.5 -22.5t22.5 -53.5v-1057q0 -60 -60 -73q-20 -5 -46 4.5t-38 34.5l-370 763v-729q0 -32 -22 -53.5t-54 -21.5q-31 0 -52.5 21.5t-21.5 53.5z" />
<glyph horiz-adv-x="991" d="M72 588q0 149 10 215q36 242 219 340q95 49 205 49q57 0 112 -12t115.5 -47t106 -89t75.5 -146.5t31 -211.5v-65q0 -9 0.5 -49.5t0 -59t-2 -60.5t-5.5 -67t-12 -65.5t-19.5 -67.5t-29 -62.5t-40 -61t-53.5 -51.5t-68 -46q-91 -49 -211 -49q-84 0 -154 26t-116.5 68 t-76 84t-46.5 86q-20 54 -29.5 115.5t-10.5 98.5t-1 128zM222.5 489q0.5 -16 3.5 -56.5t8.5 -63t16.5 -58t26.5 -58.5t40 -47t55.5 -40q60 -33 133 -33q39 0 74.5 7.5t76 30.5t69.5 60.5t48.5 104.5t20.5 156v129q0 1 0.5 30.5t0 41t-2 44t-6 50.5t-11 49t-18 51.5t-26.5 45 t-37 43t-48 32.5q-48 32 -141 32q-38 0 -73 -7.5t-74 -31t-67.5 -60.5t-48 -103t-20.5 -152v-98q0 -4 -0.5 -43.5t0 -55.5z" />
<glyph horiz-adv-x="815" d="M96 59v1055q0 30 21.5 53t54.5 23h213q153 0 250.5 -104.5t97.5 -241.5q0 -149 -103.5 -249.5t-246.5 -100.5h-135v-435q0 -32 -22.5 -53.5t-53.5 -21.5t-53.5 21.5t-22.5 53.5zM248 645h135q78 0 138.5 56t60.5 143q0 78 -54.5 137t-142.5 59h-137v-395z" />
<glyph horiz-adv-x="989" d="M72 588q0 149 10 215q36 242 219 340q95 49 205 49q57 0 111.5 -12t115 -47t106 -89t75.5 -146.5t32 -211.5v-65q0 -178 -8 -241q-18 -139 -86 -233l27 -57q13 -22 4 -53t-41 -47q-19 -12 -52 -3.5t-49 40.5l-6 14q-102 -59 -229 -59q-84 0 -154 26t-116.5 68t-76 84 t-46.5 86q-20 54 -29.5 115.5t-10.5 98.5t-1 128zM222.5 489q0.5 -16 3.5 -56.5t8.5 -63t16.5 -58t26.5 -58.5t40 -47t55.5 -40q60 -33 133 -33q97 0 164 45l-97 201q-1 1 -4.5 15.5t-3.5 17.5q0 35 25 55t51 20q19 -3 32 -8.5t17.5 -9.5t10 -13t8.5 -12l61 -127 q6 17 10.5 34t7 40t4.5 36.5t2.5 45t0.5 43v52.5v53q0 1 0.5 30.5t0 41t-2 44t-6 50.5t-11 49t-18 51.5t-26.5 45t-37 43t-48 32.5q-48 32 -141 32q-38 0 -73 -7.5t-74 -31t-67.5 -60.5t-48 -103t-20.5 -152v-98q0 -4 -0.5 -43.5t0 -55.5z" />
<glyph horiz-adv-x="815" d="M66 59v1055q0 30 21 53t54 23h295q103 0 184.5 -50.5t123.5 -129t42 -166.5q-2 -120 -73.5 -213.5t-186.5 -124.5l203 -414q12 -24 3.5 -55t-38.5 -47q-20 -12 -53 -4t-49 39l-227 469h-148v-435q0 -32 -22 -53.5t-54 -21.5q-31 0 -53 21.5t-22 53.5zM217 645h219 q76 0 137.5 56t61.5 143q0 78 -54.5 137t-144.5 59h-219v-395z" />
<glyph horiz-adv-x="843" d="M68 881q0 135 101.5 223t242.5 88h4q93 -1 177 -41.5t144 -106.5q19 -25 19 -51t-20 -49.5t-56 -23.5q-35 0 -57 24q-37 43 -94 69.5t-115 26.5h-2q-79 0 -136 -44.5t-57 -114.5q0 -27 10.5 -51.5t22.5 -42t38 -36.5t40.5 -28.5t47 -24t41 -18t38.5 -14.5 q49 -20 85.5 -37t85.5 -50t80.5 -68.5t55 -89.5t24.5 -116v-2q0 -129 -100.5 -225t-255.5 -96q-100 0 -191 43.5t-153 115.5q-18 24 -18 49q0 28 19.5 52t55.5 24q38 0 58 -26q42 -48 102.5 -77.5t126.5 -29.5q96 0 150.5 53.5t54.5 116.5v2q-1 44 -22.5 80.5t-64.5 64 t-67.5 39.5t-69.5 30q-8 3 -12 5q-106 39 -166 79q-167 111 -167 278z" />
<glyph horiz-adv-x="897" d="M43 1116q0 31 22.5 53.5t53.5 22.5h684q31 0 53.5 -22.5t22.5 -53.5t-22.5 -53.5t-53.5 -22.5h-266v-981q0 -32 -22.5 -53.5t-53.5 -21.5t-53.5 21.5t-22.5 53.5v981h-266q-31 0 -53.5 22.5t-22.5 53.5z" />
<glyph horiz-adv-x="899" d="M70 315v801q0 31 21.5 53.5t53.5 22.5q31 0 53.5 -22.5t22.5 -53.5v-801q2 -72 64.5 -127t175.5 -55q114 0 176.5 57t62.5 125v801q0 31 22.5 53.5t53.5 22.5q32 0 54 -22.5t22 -53.5v-801q0 -59 -25.5 -117t-72.5 -106t-123.5 -78t-169.5 -30t-170 30t-124 78.5t-72 106 t-25 116.5z" />
<glyph horiz-adv-x="915" d="M73 1121.5q-1 17.5 12.5 38.5t39.5 28q18 8 50 -2t44 -47l250 -822l252 822q1 1 7 10.5t12.5 18.5t21.5 16.5t33 7.5q25 0 50 -20.5t25 -55.5l-4 -22l-323 -1057q-1 -1 -4.5 -8.5t-8.5 -14t-12.5 -14t-20.5 -12t-28 -4.5q-2 1 -11 2t-16 3.5t-16.5 7.5t-16.5 15.5 t-12 24.5l-323 1057q0 10 -1 27.5z" />
<glyph horiz-adv-x="972" d="M55 1106v10q0 31 22 53.5t54 22.5q28 0 49.5 -19t24.5 -47l100 -776l127 307q1 1 11 15t14.5 17.5t17 9.5t27.5 6q5 -2 17 -5t15.5 -4.5t11 -5t10.5 -7.5t7.5 -10.5t7.5 -15.5l127 -307l101 776q3 28 24 47t49 19q32 0 54 -22.5t22 -53.5v-10l-135 -1057q-7 -31 -20 -46 t-45 -19q-22 -2 -45.5 8.5t-34.5 36.5l-166 403l-166 -403q-22 -45 -70 -45h-10q-31 7 -46.5 19.5t-19.5 45.5z" />
<glyph horiz-adv-x="858" d="M39 59q0 21 10 39l305 498l-295 481q-10 17 -10 39q0 19 7.5 34t18 22.5t22.5 12.5t18.5 6t9.5 1q42 0 63 -37l261 -424l258 424q21 37 65 37q3 0 8 -1t18.5 -6t23.5 -12t18 -22t8 -35q0 -24 -12 -39l-299 -491l299 -488q12 -21 12 -39q0 -31 -20 -50t-34.5 -22t-21.5 -3 q-44 0 -65 34l-265 433l-264 -433q-21 -34 -63 -34q-3 0 -8 0.5t-18.5 5t-23.5 12t-18 22.5t-8 35z" />
<glyph horiz-adv-x="841" d="M33 1116q0 23 10 40t24.5 24t24 9.5t14.5 2.5q43 0 66 -37l260 -440l258 440q23 37 66 37q3 0 8 -1t18 -6t23 -12t18 -22t8 -35q0 -19 -10 -39l-315 -530v-488q0 -32 -21.5 -53.5t-52.5 -21.5q-32 0 -54 21.5t-22 53.5v488l-313 530q-10 16 -10 39z" />
<glyph horiz-adv-x="851" d="M39 59q0 22 10 37l256 443h-129q-31 0 -52.5 21.5t-21.5 53.5q0 31 21.5 53.5t52.5 22.5h217l205 350h-453q-31 0 -53 22.5t-22 53.5t22 53.5t53 22.5h586q20 0 35 -8t22.5 -18t12 -22.5t5.5 -19t1 -8.5q0 -20 -12 -39l-226 -387h123q31 0 53.5 -22.5t22.5 -53.5 q0 -32 -22.5 -53.5t-53.5 -21.5h-211l-235 -406h489q32 0 54 -21.5t22 -52.5q0 -32 -22 -53.5t-54 -21.5h-620q-20 0 -35 7.5t-22.5 17.5t-12 22t-5.5 18.5t-1 9.5z" />
<glyph horiz-adv-x="972" />
<glyph horiz-adv-x="972" />
<glyph horiz-adv-x="972" />
<glyph horiz-adv-x="972" />
<glyph unicode="&#xa1;" horiz-adv-x="294" d="M53 1403q0 41 29 70.5t70 29.5t69.5 -29.5t28.5 -70.5q0 -40 -28.5 -69t-69.5 -29t-70 29t-29 69zM76 70v1093q0 32 22.5 54t53.5 22t53 -22t22 -54v-1093q0 -31 -22 -52.5t-53 -21.5t-53.5 21.5t-22.5 52.5z" />
<glyph unicode="&#xa2;" horiz-adv-x="550" d="M63 528q0 83 46 143.5t112 88.5v80q0 31 21.5 53t52.5 22q32 0 54 -22t22 -53v-66q23 -3 43 -12l12 -8t12 -8.5t9.5 -9t9 -11.5t4.5 -14t2 -19q0 -26 -21.5 -51t-54.5 -25q-4 0 -27 6.5t-38 6.5h-3q-41 -2 -72.5 -29.5t-31.5 -71.5q0 -49 36 -74.5t68 -25.5q23 0 52 12.5 t41 12.5q28 0 46.5 -17t23.5 -32.5t5 -26.5q0 -39 -33.5 -62t-82.5 -32v-66q0 -31 -22 -53.5t-54 -22.5q-31 0 -52.5 22.5t-21.5 53.5v80q-66 28 -112 87.5t-46 143.5z" />
<glyph unicode="&#xa3;" horiz-adv-x="993" d="M4 780q0 31 22 53.5t54 22.5h153q-24 156 -24 242q0 96 23 174.5t59.5 128t84 83t93.5 47t90 13.5q79 0 149 -38t70 -89q0 -28 -20.5 -52t-55.5 -24q-23 0 -60.5 26t-82.5 26q-34 0 -66.5 -15t-63.5 -46.5t-50 -92t-19 -141.5q0 -80 27 -242h299q32 0 54 -22.5t22 -53.5 q0 -32 -22.5 -53.5t-53.5 -21.5h-278q6 -62 6 -125q0 -252 -121 -437h463q32 0 53.5 -22t21.5 -53t-21.5 -53.5t-53.5 -22.5h-627q-3 0 -8 1t-18.5 5.5t-23.5 11.5t-18 22.5t-8 35.5q0 22 21.5 48.5t52.5 61.5t62.5 83.5t53 131.5t21.5 187q0 60 -8 125h-176q-32 0 -54 21.5 t-22 53.5z" />
<glyph unicode="&#xa4;" horiz-adv-x="677" d="M152 545q0 31 22 53l53 51q-6 18 -6 35q0 20 6 35l-45 45q-22 16 -22 53q0 33 24 54.5t52 21.5q30 0 53 -23l45 -45q10 4 35 4q22 0 32 -4l48 45q17 23 53 23q34 0 55 -23t21 -53t-23 -53l-45 -45q4 -20 4 -35q0 -11 -4 -35l53 -53q23 -23 23 -53q0 -33 -24 -54.5 t-52 -21.5q-31 0 -53 22l-56 54q-20 -4 -32 -4q-15 0 -35 4l-53 -51q-23 -23 -54 -23q-34 0 -54.5 23t-20.5 53z" />
<glyph unicode="&#xa5;" horiz-adv-x="944" d="M46.5 1487.5q8.5 32.5 39.5 48.5q20 13 52 4.5t48 -39.5l293 -590l293 590l2 3q2 3 3.5 5t4 6t5.5 6.5t7 6.5t9 6.5t10.5 5t12.5 3.5t14 1q21 0 48 -19t27 -57q0 -3 -3.5 -17t-4.5 -15l-307 -619h186q32 0 54 -22.5t22 -53.5q0 -32 -22.5 -53.5t-53.5 -21.5h-231v-115 h231q32 0 54 -22t22 -54q0 -31 -22.5 -52.5t-53.5 -21.5h-231v-333q0 -31 -22.5 -53.5t-53.5 -22.5t-53.5 22.5t-22.5 53.5v333h-208q-31 0 -53.5 21.5t-22.5 52.5q0 32 22.5 54t53.5 22h208v115h-208q-31 0 -53.5 21.5t-22.5 53.5q0 31 22.5 53.5t53.5 22.5h163l-307 619 q-13 19 -4.5 51.5z" />
<glyph unicode="&#xa6;" horiz-adv-x="487" d="M186 66v552q0 31 22.5 53.5t53.5 22.5t53.5 -22.5t22.5 -53.5v-552q0 -31 -22.5 -53.5t-53.5 -22.5t-53.5 22.5t-22.5 53.5zM186 840v553q0 31 22.5 53t53.5 22t53.5 -22t22.5 -53v-553q0 -31 -22.5 -53.5t-53.5 -22.5t-53.5 22.5t-22.5 53.5z" />
<glyph unicode="&#xa7;" horiz-adv-x="958" d="M74 1176q0 142 105 233.5t253 91.5h4q99 -1 187.5 -43.5t148.5 -111.5q19 -19 19 -50q0 -27 -19.5 -51t-54.5 -24q-36 0 -58 24q-42 48 -102 76.5t-121 28.5h-4q-86 0 -146.5 -49t-60.5 -125q0 -46 22.5 -84.5t68.5 -68t71.5 -42.5t75.5 -33q3 -2 5 -2.5t4.5 -1.5t4.5 -2 q51 -20 89.5 -38t90.5 -51.5t85.5 -71t57.5 -93.5t25 -121v-4q0 -44 -8 -80q40 -69 43 -155v-2q0 -143 -109 -239.5t-264 -96.5q-109 0 -202.5 47.5t-157.5 120.5q-18 18 -18 49q0 28 19.5 52t55.5 24q35 0 58 -27q45 -52 109.5 -83.5t135.5 -31.5q104 0 163 57.5t59 127.5 v2q-1 48 -25.5 88t-67 67.5t-74.5 43.5t-74 32q-8 3 -11 4q-103 38 -162 75q-186 118 -186 300q0 46 10 80q-45 74 -45 158zM274 868q22 -45 68 -79t92 -52.5t113 -45.5t110 -52q-22 45 -67.5 79t-91 52t-113 45.5t-111.5 52.5z" />
<glyph unicode="&#xa8;" horiz-adv-x="995" d="M240 1540q0 41 28.5 69.5t69.5 28.5t69.5 -28.5t28.5 -69.5t-29 -69.5t-69 -28.5q-41 0 -69.5 28.5t-28.5 69.5zM535 1540q0 41 29 69.5t69 28.5q41 0 69.5 -28.5t28.5 -69.5t-28.5 -69.5t-69.5 -28.5t-69.5 28.5t-28.5 69.5z" />
<glyph unicode="&#xa9;" horiz-adv-x="972" />
<glyph unicode="&#xaa;" horiz-adv-x="1001" d="M322 1038q0 28 7 53.5t23.5 46t31.5 36.5t42.5 31t43.5 24t49.5 19.5t45 14.5t44 12.5t34.5 8.5v80q0 23 -19 37t-46 14q-30 0 -52.5 -13.5t-33.5 -29.5t-29.5 -29.5t-42.5 -13.5q-3 0 -8 1t-18.5 5.5t-23.5 12t-18 22t-8 33.5q0 47 71 105.5t163 58.5q97 -1 157 -62.5 t60 -140.5v-340q26 -2 47.5 -21.5t21.5 -52.5t-27 -58.5t-71 -25.5q-60 0 -94 47q-77 -51 -160 -51q-86 0 -138 53.5t-52 122.5zM473 1038q0 -24 39 -24q35 0 70.5 23t60.5 55v36q-30 -9 -42 -13l-37.5 -12.5t-37 -14.5t-26.5 -14.5t-21 -17.5t-6 -18z" />
<glyph unicode="&#xab;" horiz-adv-x="851" d="M57 750q0 36 29 59l248 195q21 16 47 16t51 -19.5t25 -56.5q0 -34 -29 -59l-174 -135l174 -140q29 -29 29 -59q0 -27 -21.5 -51.5t-54.5 -24.5q-25 0 -47 17l-248 198q-29 23 -29 60zM377 750q0 36 29 59l292 231q23 17 47 17q26 0 51 -19.5t25 -56.5q0 -35 -28 -59 l-220 -172l220 -177q28 -28 28 -59q0 -27 -21.5 -50.5t-54.5 -23.5q-28 0 -47 17l-292 233q-29 23 -29 60z" />
<glyph unicode="&#xac;" horiz-adv-x="737" d="M37 446q0 31 22 53.5t54 22.5h520q30 0 53 -21.5t23 -54.5v-258q0 -31 -22 -53t-54 -22q-31 0 -53.5 22t-22.5 53v183h-444q-32 0 -54 21.5t-22 53.5z" />
<glyph unicode="&#xad;" horiz-adv-x="737" d="M37 453q0 31 22 53t54 22h520q32 0 54 -22t22 -53t-22 -53.5t-54 -22.5h-520q-32 0 -54 22.5t-22 53.5z" />
<glyph unicode="&#xae;" horiz-adv-x="972" />
<glyph unicode="&#xaf;" d="M129 1161q0 31 22 53.5t54 22.5h598q32 0 54 -22.5t22 -53.5t-22 -53.5t-54 -22.5h-598q-32 0 -54 22.5t-22 53.5z" />
<glyph unicode="&#xb0;" horiz-adv-x="770" d="M326 1505q0 66 47.5 114t113.5 48t114 -48t48 -114t-48 -114t-114 -48t-113.5 48t-47.5 114zM428 1505q0 -25 17 -42t42 -17t42.5 17t17.5 42t-17.5 42.5t-42.5 17.5t-42 -17.5t-17 -42.5z" />
<glyph unicode="&#xb1;" d="M43 862q0 32 22.5 54t53.5 22h321v299q0 31 22 53.5t54 22.5q31 0 53.5 -22.5t22.5 -53.5v-299h301q31 0 53.5 -22t22.5 -54q0 -31 -22.5 -53.5t-53.5 -22.5h-301v-323q0 -32 -22.5 -54t-53.5 -22q-32 0 -54 22t-22 54v323h-321q-31 0 -53.5 22.5t-22.5 53.5zM164 184 q0 32 22 54t54 22h520q32 0 54 -22t22 -54q0 -31 -22 -53t-54 -22h-520q-32 0 -54 22t-22 53z" />
<glyph unicode="&#xb2;" horiz-adv-x="493" d="M39 1028q0 29 41 85t87 107.5t76 105.5t13 81q-5 10 -16 10q-8 0 -14.5 -10t-11.5 -22.5t-20.5 -22.5t-39.5 -10q-13 0 -17 2t-14 7.5t-14 7.5t-11 8t-10 12t-5.5 16t-2.5 22q0 43 43 92.5t117 49.5q67 0 120.5 -51.5t53.5 -137.5q0 -34 -10.5 -68t-30 -65t-36 -53 t-41 -50.5t-32.5 -39.5h80q31 0 53.5 -22.5t22.5 -53.5t-22.5 -53.5t-53.5 -22.5h-231q-31 0 -49.5 19t-21.5 38z" />
<glyph unicode="&#xb3;" horiz-adv-x="487" d="M49 1083q0 28 10 43t37 27q21 12 54 1t45 -42q8 -20 32 -20q27 3 40.5 23t13.5 42q0 21 -11.5 35t-31.5 14h-11q-22 0 -48.5 18t-26.5 58q0 31 16 48t35 21t35.5 12t17.5 23v3q0 13 -8 20.5t-19 7.5t-19 -11.5t-13 -25.5t-21 -25.5t-41 -11.5l-18 3q-28 9 -43 24.5 t-15 48.5q0 46 47.5 98t122.5 52q73 0 126 -53t53 -127q0 -47 -29 -95q53 -59 53 -137q0 -87 -59 -151.5t-146 -65.5q-45 0 -81.5 18.5t-56 44t-29.5 47t-11 33.5z" />
<glyph unicode="&#xb4;" horiz-adv-x="786" d="M342 1352q0 28 18.5 49t47.5 24q74 10 133 56.5t88 111.5q10 23 24.5 34t42.5 11q27 0 51.5 -20.5t24.5 -54.5q0 -18 -13.5 -48t-42.5 -68t-68 -72.5t-97.5 -62t-122.5 -36.5h-10q-31 0 -53.5 22t-22.5 54z" />
<glyph unicode="&#xb5;" horiz-adv-x="1173" d="M31 -377q0 29 19.5 52.5t55.5 23.5q23 0 44 -16l6 6l-1 -3q-1 -2 3 5q8 12 8 37v1376q0 31 22.5 53.5t53.5 22.5t53 -22.5t22 -53.5v-785q191 -196 336 -196q72 0 121 46.5t49 115.5v729q0 34 9.5 70.5t34 66t57.5 29.5q3 0 8 -1t18 -6t23 -12t18 -22t8 -35 q0 -12 -12 -41t-12 -49v-729q0 -130 -91.5 -222t-230.5 -92q-153 0 -315 127l-21 17v-389q-1 -91 -51 -143t-114 -52q-43 0 -82 24.5t-39 67.5z" />
<glyph unicode="&#xb6;" horiz-adv-x="1046" d="M61 889q0 150 106.5 257t260.5 107h504q32 0 54 -22t22 -53t-22 -53.5t-54 -22.5h-504q-95 0 -155 -64t-60 -149q0 -95 66 -155t149 -60h14q31 0 52.5 -22.5t21.5 -53.5t-21.5 -53.5t-52.5 -22.5h-14q-150 0 -258.5 105.5t-108.5 261.5zM547 -104v1001q0 30 22 51.5 t54 24.5q47 4 61 -16.5t14 -59.5v-1001q0 -32 -22 -54t-53 -22t-53.5 22t-22.5 54zM797 -104v1001q0 31 22 53.5t53 22.5t53.5 -22.5t22.5 -53.5v-1001q0 -32 -22.5 -54t-53.5 -22t-53 22t-22 54z" />
<glyph unicode="&#xb7;" horiz-adv-x="430" d="M92 674q0 54 37.5 91.5t91.5 37.5t91.5 -37.5t37.5 -91.5t-37.5 -91.5t-91.5 -37.5t-91.5 37.5t-37.5 91.5z" />
<glyph unicode="&#xb8;" d="M367 -223q0 29 20.5 52.5t54.5 23.5q21 0 43 -14.5t41 -14.5t32 9.5t15 23.5q0 8 -5 12t-9 0q-29 -8 -37 -8q-27 0 -50 19.5t-23 53.5q0 21 4 25l28 88q0 1 3 6l6 10t9 11.5t13 11.5t17.5 8.5t23.5 3.5q27 0 51.5 -19.5t24.5 -55.5q-2 -9 -2 -15q40 -16 68 -56.5 t28 -94.5q0 -73 -55 -129t-142 -56q-56 0 -107.5 29t-51.5 76z" />
<glyph unicode="&#xb9;" horiz-adv-x="972" />
<glyph unicode="&#xba;" horiz-adv-x="493" d="M18 1260q0 126 63.5 217.5t160.5 91.5t160 -91t63 -218t-63 -218.5t-160 -91.5t-160.5 91.5t-63.5 218.5zM170 1246q5 -87 40 -127q27 -31 54 -5q55 50 49 159q-5 87 -40 127q-27 31 -54 5q-55 -50 -49 -159z" />
<glyph unicode="&#xbb;" horiz-adv-x="851" d="M53 514q0 34 29 59l219 177l-219 172q-29 29 -29 59q0 27 21.5 51.5t54.5 24.5q25 0 47 -17l293 -231q29 -23 29 -59q0 -37 -29 -60l-293 -233q-17 -17 -47 -17q-26 0 -51 19t-25 55zM418 551q0 35 28 59l175 140l-175 135q-28 28 -28 59q0 28 21.5 52t54.5 24 q26 0 47 -16l247 -195q29 -23 29 -59q0 -37 -29 -60l-247 -198q-17 -17 -47 -17q-26 0 -51 19.5t-25 56.5z" />
<glyph unicode="&#xbc;" horiz-adv-x="915" d="M70 1378q-12 31 0 60t41 39l139 61q12 6 31 6q3 0 8 -1t18 -6t23 -12t18 -22t8 -35v-467q0 -31 -22 -53t-53 -22q-32 0 -54 22t-22 53v353l-35 -15q-31 -13 -59.5 -1t-40.5 40zM180 68q0 14 4 18l359 1401q3 4 8.5 14t8 14t9 11t12 10t15 5.5t20.5 2.5l19 -2q4 -2 12 -7 l12 -7.5t10.5 -7.5t9.5 -9t6.5 -10.5t5 -14.5t1.5 -18l-2 -18l-360 -1401q-3 -4 -8.5 -14t-8 -14t-8.5 -11t-12 -10t-15.5 -5.5t-21.5 -2.5l-18 2q-4 3 -16 10t-17 11t-12 11.5t-10 18t-3 23.5zM451 238q0 3 4 19t6 19l223 371q22 37 64 37l20 -2q4 -3 13 -8.5t13.5 -8.5 t11 -9t9.5 -12t5.5 -15.5t2.5 -20.5v-305q39 -20 39 -65q0 -44 -39 -64v-98q0 -32 -21 -54t-52 -22q-32 0 -54 22t-22 54v86h-148q-30 0 -49 19t-22.5 33.5t-3.5 23.5zM659 313h15v25z" />
<glyph unicode="&#xbd;" horiz-adv-x="1046" d="M71.5 1437.5q11.5 28.5 39.5 39.5l141 61q1 1 14 3.5t15 2.5q3 0 8 -1t18 -6t23 -12t18 -22t8 -35v-467q0 -31 -21.5 -53t-53.5 -22q-31 0 -53.5 22t-22.5 53v353l-33 -15q-31 -13 -59.5 -1t-40.5 40q-12 31 -0.5 59.5zM233 68l3 18l360 1401q2 4 9.5 16.5t10.5 16.5 t11 11.5t17.5 10t23.5 2.5l20 -2q4 -3 13 -8.5t13.5 -8.5t11 -9t9.5 -12t5.5 -15.5t2.5 -20.5l-2 -18l-360 -1401q-2 -4 -9.5 -16.5t-10.5 -16.5t-11 -11.5t-17.5 -10t-23.5 -2.5l-20 2q-3 2 -15.5 9.5t-16.5 11t-11.5 11.5t-10 18t-2.5 24zM530 70q0 24 27.5 65t64 84 t71.5 86.5t52 82.5t3 61q-5 10 -17 10q-8 0 -14.5 -10.5t-11.5 -22.5t-20.5 -22.5t-39.5 -10.5q-12 0 -16 2q-3 2 -15.5 8.5t-17 10t-12 11.5t-10.5 18.5t-3 25.5q0 43 43 92t117 49q67 0 120.5 -51.5t53.5 -136.5q0 -34 -10 -68t-29.5 -65.5t-35.5 -53t-41 -51t-33 -39.5 h80q31 0 53 -22t22 -53t-22 -53.5t-53 -22.5h-230q-32 0 -51 19t-22 38z" />
<glyph unicode="&#xbe;" horiz-adv-x="991" d="M61 1059q1 3 3 12t2.5 11.5t2.5 9t3.5 9t5 7.5t7 7.5t9 6t12.5 6.5q21 12 54 1t47 -42q8 -20 31 -20q28 3 40.5 23t12.5 43q0 21 -11.5 35t-31.5 14h-8q-24 0 -50 17.5t-26 57.5q0 31 15.5 48.5t34.5 21.5t35 12.5t17 24.5v2q0 12 -7.5 19.5t-16.5 7.5q-12 0 -20.5 -11.5 t-14 -25.5t-21.5 -25.5t-41 -11.5q-16 0 -18 2q-2 1 -19 11.5t-21 14.5t-10.5 17.5t-6.5 30.5q0 46 48 97.5t124 51.5q72 0 124 -51.5t52 -126.5q0 -48 -27 -96q51 -60 51 -137q0 -86 -58 -150.5t-144 -64.5h-2q-44 0 -81.5 18.5t-57.5 43.5t-30.5 47t-7.5 32zM201 68l2 18 l360 1401q2 4 9.5 16.5t10.5 16.5t11 11.5t17.5 10t23.5 2.5l20 -2q3 -2 15.5 -9.5t16.5 -11t11.5 -11.5t10 -18t2.5 -24l-2 -18l-361 -1401q-2 -4 -9.5 -16.5t-10.5 -16.5t-11 -11.5t-17.5 -10t-23.5 -2.5l-18 2q-4 2 -12 7l-12 7.5t-10.5 7.5t-9.5 9t-6.5 10.5t-5 14.5 t-1.5 18zM451 238q0 3 4 19t6 19l223 371q22 37 64 37l20 -2q4 -3 13 -8.5t13.5 -8.5t11 -9t9.5 -12t5.5 -15.5t2.5 -20.5v-305q39 -20 39 -65q0 -44 -39 -64v-98q0 -32 -21 -54t-52 -22q-32 0 -54 22t-22 54v86h-148q-30 0 -49 19t-22.5 33.5t-3.5 23.5zM659 313h15v25z " />
<glyph unicode="&#xbf;" horiz-adv-x="587" d="M6 209q0 68 25 130t60.5 110t71 95.5t60.5 105t25 118.5q0 1 -1.5 13.5t-2 24.5t1.5 28.5t8 29t19.5 23.5t33.5 14q7 2 23.5 -0.5t37.5 -18t25 -42.5q6 -38 6 -72q0 -78 -25 -149t-60 -122t-70.5 -97t-60.5 -95t-25 -96q0 -61 37 -99t86 -38q42 2 74.5 28.5t35.5 73.5 q3 30 24.5 50t51.5 20q33 0 54.5 -22.5t21.5 -53.5q0 -37 -17.5 -79t-49 -80t-83 -62.5t-112.5 -24.5q-108 0 -191.5 80t-83.5 207zM205 1051q0 41 28.5 69.5t69.5 28.5q40 0 69 -28.5t29 -69.5t-29 -70t-69 -29q-41 0 -69.5 29t-28.5 70z" />
<glyph unicode="&#xc0;" horiz-adv-x="1026" d="M53 68q0 14 4 18l359 1401q18 57 73 57q31 0 48 -12.5t26 -44.5l359 -1401q7 -18 -5 -50t-49 -42q-10 0 -27.5 -0.5t-38 14t-26.5 41.5l-96 375h-381l-96 -375q-17 -57 -74 -57q-8 0 -18 2.5t-25 9t-24.5 23.5t-8.5 41zM291 1898q-19 42 10 76t59 29q1 0 8.5 -1t14 -3 t15.5 -6t17 -13t13 -22q29 -65 88 -111.5t133 -56.5q29 -3 47.5 -24.5t18.5 -49.5q0 -32 -22.5 -54t-53.5 -22q-24 0 -64.5 12t-94 38t-106 80.5t-83.5 127.5zM338 573h303l-152 592z" />
<glyph unicode="&#xc1;" horiz-adv-x="1026" d="M53 68q0 14 4 18l359 1401q18 57 73 57q31 0 48 -12.5t26 -44.5l359 -1401q7 -18 -5 -50t-49 -42q-10 0 -27.5 -0.5t-38 14t-26.5 41.5l-96 375h-381l-96 -375q-17 -57 -74 -57q-8 0 -18 2.5t-25 9t-24.5 23.5t-8.5 41zM338 573h303l-152 592zM342 1720q0 28 18.5 49.5 t47.5 24.5q74 10 133 56.5t88 111.5q10 23 24.5 34t42.5 11q27 0 51.5 -21t24.5 -55q0 -18 -13.5 -48t-42.5 -67.5t-68 -72t-97.5 -62t-122.5 -36.5h-10q-31 0 -53.5 21.5t-22.5 53.5z" />
<glyph unicode="&#xc2;" horiz-adv-x="1026" d="M53 68q0 14 4 18l359 1401q18 57 73 57q31 0 48 -12.5t26 -44.5l359 -1401q7 -18 -5 -50t-49 -42q-10 0 -27.5 -0.5t-38 14t-26.5 41.5l-96 375h-381l-96 -375q-17 -57 -74 -57q-8 0 -18 2.5t-25 9t-24.5 23.5t-8.5 41zM315 1712q0 30 19 51l135 154q25 25 57 25 q33 0 56 -25l135 -154q18 -24 18 -51q0 -26 -20.5 -50t-55.5 -24q-34 0 -57 25l-76 88l-77 -88q-25 -25 -58 -25q-28 0 -52 19.5t-24 54.5zM338 573h303l-152 592z" />
<glyph unicode="&#xc3;" horiz-adv-x="1026" d="M53 68q0 14 4 18l359 1401q18 57 73 57q31 0 48 -12.5t26 -44.5l359 -1401q7 -18 -5 -50t-49 -42q-10 0 -27.5 -0.5t-38 14t-26.5 41.5l-96 375h-381l-96 -375q-17 -57 -74 -57q-8 0 -18 2.5t-25 9t-24.5 23.5t-8.5 41zM279 1797.5q9 59.5 65 94.5q35 21 80 21 q33 0 63 -12.5t51.5 -30.5t39.5 -36.5t34 -31t29 -12.5q12 0 12 8q-3 8 -6.5 21t4 41t35.5 43q38 18 77.5 -8.5t39.5 -96.5q0 -65 -47 -111.5t-115 -46.5q-35 0 -69 14.5t-50 26.5t-45.5 40.5t-30.5 29.5q7 -17 7 -31q0 -27 -21 -50t-55 -23q-46 0 -76.5 45.5t-21.5 105z M338 573h303l-152 592z" />
<glyph unicode="&#xc4;" horiz-adv-x="1026" d="M53 68q0 14 4 18l359 1401q18 57 73 57q31 0 48 -12.5t26 -44.5l359 -1401q7 -18 -5 -50t-49 -42q-10 0 -27.5 -0.5t-38 14t-26.5 41.5l-96 375h-381l-96 -375q-17 -57 -74 -57q-8 0 -18 2.5t-25 9t-24.5 23.5t-8.5 41zM242 1733q0 41 28.5 69.5t69.5 28.5t69.5 -28.5 t28.5 -69.5t-29 -70t-69 -29q-41 0 -69.5 29t-28.5 70zM338 573h303l-152 592zM537 1733q0 41 29 69.5t69 28.5q41 0 69.5 -28.5t28.5 -69.5t-28.5 -70t-69.5 -29t-69.5 29t-28.5 70z" />
<glyph unicode="&#xc5;" horiz-adv-x="1026" d="M53 68q0 14 4 18l359 1401q18 57 73 57q31 0 48 -12.5t26 -44.5l359 -1401q7 -18 -5 -50t-49 -42q-10 0 -27.5 -0.5t-38 14t-26.5 41.5l-96 375h-381l-96 -375q-17 -57 -74 -57q-8 0 -18 2.5t-25 9t-24.5 23.5t-8.5 41zM338 573h303l-152 592zM367 1800q0 66 47.5 114 t113.5 48t114 -48t48 -114t-48 -114t-114 -48t-113.5 48t-47.5 114zM469 1800q0 -25 17 -42t42 -17t42.5 17t17.5 42t-17.5 42.5t-42.5 17.5t-42 -17.5t-17 -42.5z" />
<glyph unicode="&#xc6;" horiz-adv-x="1570" d="M100 68q0 10 9 34l219 424l6 13l491 962l2 -2q23 45 68 45h551q31 0 53.5 -22.5t22.5 -53.5t-22.5 -53t-53.5 -22h-475v-537h434q31 0 53.5 -22.5t22.5 -53.5q0 -32 -22.5 -53.5t-53.5 -21.5h-434v-562h475q31 0 53.5 -22t22.5 -53t-22.5 -53.5t-53.5 -22.5h-551 q-30 0 -53 21.5t-23 54.5v356h-375l-200 -391l-4 -5q-4 -6 -9 -11.5t-12.5 -11.5t-18.5 -9.5t-24 -3.5q-21 0 -48.5 18.5t-27.5 57.5zM522 573h297v582z" />
<glyph unicode="&#xc7;" horiz-adv-x="995" d="M94 669.5v49v47.5v47v48.5t0.5 43.5t1 46t2 41t4 44t5.5 40t7.5 44t10 40.5t12.5 43.5q50 150 162.5 244t267.5 94q196 0 324 -139q20 -20 20 -51q0 -35 -22.5 -55.5t-52.5 -20.5q-19 0 -37 12t-36.5 29t-41.5 33.5t-63 28.5t-91 12q-43 0 -83 -11t-84.5 -43.5t-76.5 -85 t-54 -144t-23 -210.5v-131q0 -203 12 -287q31 -214 162 -297q65 -41 147 -41h2q179 0 228 148l3 7q4 8 8.5 14.5t12.5 14.5t20 12.5t27 4.5q26 0 51 -20.5t25 -55.5q0 -10 -7.5 -35t-31.5 -66t-60 -77t-102 -64.5t-149 -31.5q22 -26 22 -55q-2 -9 -2 -15q40 -16 68.5 -56.5 t28.5 -94.5q0 -73 -55 -129t-142 -56q-56 0 -108 29t-52 76q0 29 21 52.5t55 23.5q21 0 43 -14.5t41 -14.5t32 9.5t15 23.5q0 8 -5 12t-9 0q-29 -8 -37 -8q-27 0 -50.5 19.5t-23.5 53.5q0 21 4 25l29 88q12 23 25 35q-74 12 -137 47t-105.5 84.5t-70 98t-44.5 100.5 q-7 21 -12.5 44t-10 40.5t-7.5 44t-5.5 40.5t-4 44t-2 41t-1 46t-0.5 43.5z" />
<glyph unicode="&#xc8;" horiz-adv-x="847" d="M125 68v1400q0 29 22 52.5t54 23.5h551q31 0 53 -22.5t22 -53.5t-22 -53t-53 -22h-476v-537h435q31 0 53 -22.5t22 -53.5q0 -32 -22 -53.5t-53 -21.5h-435v-562h476q31 0 53 -22t22 -53t-22 -53.5t-53 -22.5h-551q-29 0 -52.5 22t-23.5 54zM217 1898q-19 42 10.5 76 t59.5 29l8 -1q8 -1 14.5 -3t15 -6t16.5 -13t13 -22q29 -65 88 -111.5t133 -56.5q29 -3 47.5 -24.5t18.5 -49.5q0 -32 -22.5 -54t-53.5 -22q-24 0 -64.5 12t-94 38t-106 80.5t-83.5 127.5z" />
<glyph unicode="&#xc9;" horiz-adv-x="847" d="M125 68v1400q0 29 22 52.5t54 23.5h551q31 0 53 -22.5t22 -53.5t-22 -53t-53 -22h-476v-537h435q31 0 53 -22.5t22 -53.5q0 -32 -22 -53.5t-53 -21.5h-435v-562h476q31 0 53 -22t22 -53t-22 -53.5t-53 -22.5h-551q-29 0 -52.5 22t-23.5 54zM252 1720q0 28 18 49.5 t47 24.5q74 10 133.5 56.5t88.5 111.5q10 23 24.5 34t42.5 11q27 0 51.5 -21t24.5 -55q0 -18 -13.5 -48t-42.5 -67.5t-68 -72t-97.5 -62t-122.5 -36.5h-10q-31 0 -53.5 21.5t-22.5 53.5z" />
<glyph unicode="&#xca;" horiz-adv-x="847" d="M125 68v1400q0 29 22 52.5t54 23.5h551q31 0 53 -22.5t22 -53.5t-22 -53t-53 -22h-476v-537h435q31 0 53 -22.5t22 -53.5q0 -32 -22 -53.5t-53 -21.5h-435v-562h476q31 0 53 -22t22 -53t-22 -53.5t-53 -22.5h-551q-29 0 -52.5 22t-23.5 54zM238 1716q0 31 18 51l135 154 q25 25 58 25q32 0 55 -25l135 -154q18 -24 18 -51q0 -26 -20 -50t-55 -24t-58 25l-75 88l-78 -88q-25 -25 -58 -25q-28 0 -51.5 19.5t-23.5 54.5z" />
<glyph unicode="&#xcb;" horiz-adv-x="847" d="M125 68v1400q0 29 22 52.5t54 23.5h551q31 0 53 -22.5t22 -53.5t-22 -53t-53 -22h-476v-537h435q31 0 53 -22.5t22 -53.5q0 -32 -22 -53.5t-53 -21.5h-435v-562h476q31 0 53 -22t22 -53t-22 -53.5t-53 -22.5h-551q-29 0 -52.5 22t-23.5 54zM207 1737q0 41 28.5 69.5 t69.5 28.5t69.5 -28.5t28.5 -69.5t-29 -70t-69 -29q-41 0 -69.5 29t-28.5 70zM502 1737q0 41 29 69.5t69 28.5q41 0 69.5 -28.5t28.5 -69.5t-28.5 -70t-69.5 -29t-69.5 29t-28.5 70z" />
<glyph unicode="&#xcc;" horiz-adv-x="518" d="M66 1898q-19 42 10 76t59 29q1 0 8.5 -1t14 -3t15.5 -6t17 -13t13 -22q29 -65 88 -111.5t133 -56.5q29 -3 47 -24.5t18 -49.5q0 -32 -22 -54t-53 -22q-24 0 -64.5 12t-94 38t-106 80.5t-83.5 127.5zM125 68v1400q0 31 22.5 53.5t53.5 22.5t53 -22.5t22 -53.5v-1400 q0 -31 -22 -53.5t-53 -22.5t-53.5 22.5t-22.5 53.5z" />
<glyph unicode="&#xcd;" horiz-adv-x="518" d="M72 1720q0 28 18 49.5t47 24.5q74 10 133 56.5t88 111.5q10 23 24.5 34t43.5 11q27 0 51.5 -21t24.5 -55q0 -18 -13.5 -48t-42.5 -67.5t-68 -72t-97.5 -62t-122.5 -36.5h-11q-31 0 -53 21.5t-22 53.5zM125 68v1400q0 31 22.5 53.5t53.5 22.5t53 -22.5t22 -53.5v-1400 q0 -31 -22 -53.5t-53 -22.5t-53.5 22.5t-22.5 53.5z" />
<glyph unicode="&#xce;" horiz-adv-x="518" d="M45 1716q0 31 18 51l136 154q25 25 57 25t55 -25l135 -154q19 -25 19 -51t-20.5 -50t-55.5 -24q-34 0 -57 25l-76 88l-78 -88q-25 -25 -57 -25q-28 0 -52 19.5t-24 54.5zM190 68v1400q0 31 22.5 53.5t53.5 22.5t53.5 -22.5t22.5 -53.5v-1400q0 -31 -22.5 -53.5 t-53.5 -22.5t-53.5 22.5t-22.5 53.5z" />
<glyph unicode="&#xcf;" horiz-adv-x="518" d="M23 1733q0 41 28.5 69.5t69.5 28.5t69.5 -28.5t28.5 -69.5t-29 -70t-69 -29q-41 0 -69.5 29t-28.5 70zM203 68v1400q0 31 22.5 53.5t53.5 22.5t53 -22.5t22 -53.5v-1400q0 -31 -22 -53.5t-53 -22.5t-53.5 22.5t-22.5 53.5zM317 1733q0 41 29.5 69.5t69.5 28.5 q41 0 69.5 -28.5t28.5 -69.5t-28.5 -70t-69.5 -29t-70 29t-29 70z" />
<glyph unicode="&#xd0;" horiz-adv-x="1155" d="M49 760q0 32 22 54t54 22h129v632q0 29 21 52.5t53 23.5h245q77 0 151.5 -25.5t142.5 -76.5t122 -134.5t84 -191.5q39 -142 39 -336q0 -525 -276 -708q-122 -80 -261 -80h-247q-29 0 -51.5 21.5t-22.5 54.5v616h-129q-32 0 -54 22.5t-22 53.5zM403 143h172 q110 0 205 74.5t140 220.5q41 129 41 342q0 397 -181 539q-93 74 -207 74h-170v-557h136q31 0 53 -22t22 -54q0 -31 -22 -53.5t-53 -22.5h-136v-541z" />
<glyph unicode="&#xd1;" horiz-adv-x="907" d="M125 68v1400q0 42 30 62.5t65.5 11t49.5 -44.5l426 -1044v1015q0 31 22 53.5t54 22.5q31 0 53.5 -22.5t22.5 -53.5v-1400q0 -42 -30.5 -62.5t-66 -11t-49.5 44.5l-426 1044v-1015q0 -31 -21.5 -53.5t-53.5 -22.5q-31 0 -53.5 22.5t-22.5 53.5zM193 1797.5q9 59.5 65 94.5 q35 21 80 21q33 0 63 -12.5t51.5 -30.5t39.5 -36.5t34 -31t29 -12.5q12 0 12 8q-3 8 -6.5 21t4 41t35.5 43q38 18 77.5 -8.5t39.5 -96.5q0 -65 -47 -111.5t-115 -46.5q-35 0 -69 14.5t-50 26.5t-45.5 40.5t-30.5 29.5q7 -17 7 -31q0 -27 -21 -50t-55 -23q-46 0 -76.5 45.5 t-21.5 105z" />
<glyph unicode="&#xd2;" horiz-adv-x="1103" d="M94 768q0 113 1 161.5t11.5 129t32.5 147.5q48 150 161 244t269 94q75 0 141 -21.5t112.5 -55.5t84.5 -80t61 -90t38 -91q20 -62 30 -132.5t11.5 -118.5t1.5 -142q0 -224 -9 -309q-29 -276 -181 -407q-26 -22 -54 -40q-105 -67 -236 -67q-156 0 -269 93.5t-161 244.5 q-22 68 -32.5 148.5t-11.5 129t-1 162.5zM246 749q0 -60 0.5 -91.5t3.5 -89.5t9.5 -93.5t19 -84.5t30.5 -82t46.5 -67t64.5 -57q71 -43 149 -43q44 0 84.5 10.5t86.5 43t79 85t55 145t23 214.5v174q0 52 -0.5 80.5t-3.5 82.5t-9.5 89t-19 82.5t-30.5 80.5t-46.5 66t-64.5 56 q-65 43 -154 43q-43 0 -83 -11t-85 -43.5t-77.5 -85t-54.5 -144t-23 -210.5v-131v-19zM287 1898q-19 42 10 76t59 29q1 0 8.5 -1t14 -3t15.5 -6t17 -13t13 -22q29 -65 88 -111.5t133 -56.5q29 -3 47.5 -24.5t18.5 -49.5q0 -32 -22.5 -54t-53.5 -22q-24 0 -64.5 12t-94 38 t-106 80.5t-83.5 127.5z" />
<glyph unicode="&#xd3;" horiz-adv-x="1103" d="M94 768q0 113 1 161.5t11.5 129t32.5 147.5q48 150 161 244t269 94q75 0 141 -21.5t112.5 -55.5t84.5 -80t61 -90t38 -91q20 -62 30 -132.5t11.5 -118.5t1.5 -142q0 -224 -9 -309q-29 -276 -181 -407q-26 -22 -54 -40q-105 -67 -236 -67q-156 0 -269 93.5t-161 244.5 q-22 68 -32.5 148.5t-11.5 129t-1 162.5zM246 749q0 -60 0.5 -91.5t3.5 -89.5t9.5 -93.5t19 -84.5t30.5 -82t46.5 -67t64.5 -57q71 -43 149 -43q44 0 84.5 10.5t86.5 43t79 85t55 145t23 214.5v174q0 52 -0.5 80.5t-3.5 82.5t-9.5 89t-19 82.5t-30.5 80.5t-46.5 66t-64.5 56 q-65 43 -154 43q-43 0 -83 -11t-85 -43.5t-77.5 -85t-54.5 -144t-23 -210.5v-131v-19zM354 1716q0 28 18.5 49.5t47.5 24.5q74 10 133 56.5t88 111.5q10 23 24.5 34t43.5 11q26 0 50.5 -21t24.5 -55q0 -18 -13.5 -48t-42.5 -68t-68 -72.5t-97.5 -62t-122.5 -36.5h-10 q-31 0 -53.5 22t-22.5 54z" />
<glyph unicode="&#xd4;" horiz-adv-x="1103" d="M94 768q0 113 1 161.5t11.5 129t32.5 147.5q48 150 161 244t269 94q75 0 141 -21.5t112.5 -55.5t84.5 -80t61 -90t38 -91q20 -62 30 -132.5t11.5 -118.5t1.5 -142q0 -224 -9 -309q-29 -276 -181 -407q-26 -22 -54 -40q-105 -67 -236 -67q-156 0 -269 93.5t-161 244.5 q-22 68 -32.5 148.5t-11.5 129t-1 162.5zM246 749q0 -60 0.5 -91.5t3.5 -89.5t9.5 -93.5t19 -84.5t30.5 -82t46.5 -67t64.5 -57q71 -43 149 -43q44 0 84.5 10.5t86.5 43t79 85t55 145t23 214.5v174q0 52 -0.5 80.5t-3.5 82.5t-9.5 89t-19 82.5t-30.5 80.5t-46.5 66t-64.5 56 q-65 43 -154 43q-43 0 -83 -11t-85 -43.5t-77.5 -85t-54.5 -144t-23 -210.5v-131v-19zM381 1712q0 31 18 51l136 154q25 25 57 25t55 -25l135 -154q19 -25 19 -51t-20.5 -50t-55.5 -24q-34 0 -57 25l-76 88l-78 -88q-25 -25 -57 -25q-28 0 -52 19.5t-24 54.5z" />
<glyph unicode="&#xd5;" horiz-adv-x="1103" d="M94 768q0 113 1 161.5t11.5 129t32.5 147.5q48 150 161 244t269 94q75 0 141 -21.5t112.5 -55.5t84.5 -80t61 -90t38 -91q20 -62 30 -132.5t11.5 -118.5t1.5 -142q0 -224 -9 -309q-29 -276 -181 -407q-26 -22 -54 -40q-105 -67 -236 -67q-156 0 -269 93.5t-161 244.5 q-22 68 -32.5 148.5t-11.5 129t-1 162.5zM246 749q0 -60 0.5 -91.5t3.5 -89.5t9.5 -93.5t19 -84.5t30.5 -82t46.5 -67t64.5 -57q71 -43 149 -43q44 0 84.5 10.5t86.5 43t79 85t55 145t23 214.5v174q0 52 -0.5 80.5t-3.5 82.5t-9.5 89t-19 82.5t-30.5 80.5t-46.5 66t-64.5 56 q-65 43 -154 43q-43 0 -83 -11t-85 -43.5t-77.5 -85t-54.5 -144t-23 -210.5v-131v-19zM312 1793q9 60 65 95q35 21 80 21q33 0 63 -12.5t51.5 -30.5t39.5 -36.5t34 -31t29 -12.5q12 0 12 8q-1 3 -3 8t-3.5 19t0.5 26.5t11.5 27t27.5 23.5q38 18 77.5 -8t39.5 -96 q0 -65 -47 -111.5t-115 -46.5q-35 0 -69 14.5t-50 26.5t-45.5 40.5t-30.5 29.5q6 -15 6 -31q0 -28 -20.5 -51t-54.5 -23q-46 0 -76.5 45.5t-21.5 105.5z" />
<glyph unicode="&#xd6;" horiz-adv-x="1103" d="M94 768q0 113 1 161.5t11.5 129t32.5 147.5q48 150 161 244t269 94q75 0 141 -21.5t112.5 -55.5t84.5 -80t61 -90t38 -91q20 -62 30 -132.5t11.5 -118.5t1.5 -142q0 -224 -9 -309q-29 -276 -181 -407q-26 -22 -54 -40q-105 -67 -236 -67q-156 0 -269 93.5t-161 244.5 q-22 68 -32.5 148.5t-11.5 129t-1 162.5zM246 749q0 -60 0.5 -91.5t3.5 -89.5t9.5 -93.5t19 -84.5t30.5 -82t46.5 -67t64.5 -57q71 -43 149 -43q44 0 84.5 10.5t86.5 43t79 85t55 145t23 214.5v174q0 52 -0.5 80.5t-3.5 82.5t-9.5 89t-19 82.5t-30.5 80.5t-46.5 66t-64.5 56 q-65 43 -154 43q-43 0 -83 -11t-85 -43.5t-77.5 -85t-54.5 -144t-23 -210.5v-131v-19zM326 1737q0 41 28.5 69.5t69.5 28.5t69.5 -28.5t28.5 -69.5t-29 -70t-69 -29q-41 0 -69.5 29t-28.5 70zM621 1737q0 41 29 69.5t69 28.5q41 0 69.5 -28.5t28.5 -69.5t-28.5 -70 t-69.5 -29t-69.5 29t-28.5 70z" />
<glyph unicode="&#xd7;" horiz-adv-x="757" d="M88 49q0 3 5 19.5t7 19.5l191 303l-185 291q-1 3 -5.5 20.5t-4.5 20.5q0 20 8 35t18 22.5t22.5 12t19 5.5t8.5 1q40 0 64 -35l149 -238l152 238q21 35 63 35q3 0 8 -1t18.5 -6t23.5 -12t18 -22t8 -35q0 -3 -5 -20.5t-7 -20.5l-189 -297l189 -297q2 -3 6 -19.5t4 -19.5 q0 -20 -8 -35t-18 -22.5t-22.5 -12t-19 -5.5t-8.5 -1q-42 0 -63 35l-154 242l-154 -242q-18 -35 -63 -35q-3 0 -8 1t-18.5 6t-23.5 12t-18 22t-8 35z" />
<glyph unicode="&#xd8;" horiz-adv-x="1009" d="M76 754v18q0 124 8 216.5t30 190t67.5 173t115.5 127.5q52 40 102 56.5t115 16.5q121 0 209 -63l25 53q3 4 11.5 15t13.5 15.5t16.5 9.5t25.5 5q25 0 50.5 -21t25.5 -55q0 -18 -6 -30l-47 -109q36 -52 61 -120.5t36.5 -123t18 -132t7 -113.5t0.5 -103q0 -95 -3.5 -166.5 t-17 -158t-36.5 -152t-65 -128.5t-100 -107q-99 -76 -225 -76q-135 0 -244 96l-39 -90q-2 -3 -12 -15t-14.5 -16t-16.5 -9t-26 -5q-25 0 -50.5 21t-25.5 55q0 2 3 15t3 15l74 166q-42 81 -63.5 195.5t-24 178t-2.5 155.5zM225 772q0 -225 29 -348l408 924q-59 53 -148 53 q-39 0 -74.5 -12t-75.5 -49t-69 -95t-48 -159.5t-20 -233.5q-2 -51 -2 -80zM338 240q75 -97 176 -97q33 0 63.5 9t65 30t63 62.5t52.5 100t37.5 149.5t13.5 204v82q0 145 -9 239t-40 177z" />
<glyph unicode="&#xd9;" horiz-adv-x="1001" d="M117 410v1058q0 31 22 53.5t54 22.5q30 0 51.5 -22.5t21.5 -53.5v-1058q0 -46 17.5 -92t50 -86t87.5 -64.5t122 -24.5q69 0 124 25.5t87 66t48.5 86t16.5 89.5v1058q0 31 21.5 53.5t52.5 22.5q32 0 54 -22.5t22 -53.5v-1058q0 -75 -28.5 -148.5t-80.5 -134t-135 -98 t-182 -37.5q-100 0 -182.5 37t-134.5 97.5t-80.5 134t-28.5 149.5zM319 1898q-19 42 10.5 76t59.5 29q1 0 8.5 -1t14 -3t15.5 -6t17 -13t13 -22q29 -65 88 -111.5t133 -56.5q29 -3 47 -24.5t18 -49.5q0 -32 -22 -54t-53 -22q-24 0 -64.5 12t-94 38t-106.5 80.5t-84 127.5z " />
<glyph unicode="&#xda;" horiz-adv-x="1001" d="M117 410v1058q0 31 22 53.5t54 22.5q30 0 51.5 -22.5t21.5 -53.5v-1058q0 -46 17.5 -92t50 -86t87.5 -64.5t122 -24.5q69 0 124 25.5t87 66t48.5 86t16.5 89.5v1058q0 31 21.5 53.5t52.5 22.5q32 0 54 -22.5t22 -53.5v-1058q0 -75 -28.5 -148.5t-80.5 -134t-135 -98 t-182 -37.5q-100 0 -182.5 37t-134.5 97.5t-80.5 134t-28.5 149.5zM338 1716q0 28 18 49.5t47 24.5q74 10 133.5 56.5t88.5 111.5q10 23 24.5 34t42.5 11q27 0 51.5 -21t24.5 -55q0 -18 -13.5 -48t-42.5 -68t-68 -72.5t-97.5 -62t-122.5 -36.5h-10q-31 0 -53.5 22t-22.5 54z " />
<glyph unicode="&#xdb;" horiz-adv-x="1001" d="M117 410v1058q0 31 22 53.5t54 22.5q30 0 51.5 -22.5t21.5 -53.5v-1058q0 -46 17.5 -92t50 -86t87.5 -64.5t122 -24.5q69 0 124 25.5t87 66t48.5 86t16.5 89.5v1058q0 31 21.5 53.5t52.5 22.5q32 0 54 -22.5t22 -53.5v-1058q0 -75 -28.5 -148.5t-80.5 -134t-135 -98 t-182 -37.5q-100 0 -182.5 37t-134.5 97.5t-80.5 134t-28.5 149.5zM311 1712q0 30 19 51l135 154q25 25 57 25q33 0 56 -25l135 -154q18 -24 18 -51q0 -26 -20.5 -50t-55.5 -24q-34 0 -57 25l-76 88l-78 -88q-25 -25 -57 -25q-28 0 -52 19.5t-24 54.5z" />
<glyph unicode="&#xdc;" horiz-adv-x="1001" d="M117 410v1058q0 31 22 53.5t54 22.5q30 0 51.5 -22.5t21.5 -53.5v-1058q0 -46 17.5 -92t50 -86t87.5 -64.5t122 -24.5q69 0 124 25.5t87 66t48.5 86t16.5 89.5v1058q0 31 21.5 53.5t52.5 22.5q32 0 54 -22.5t22 -53.5v-1058q0 -75 -28.5 -148.5t-80.5 -134t-135 -98 t-182 -37.5q-100 0 -182.5 37t-134.5 97.5t-80.5 134t-28.5 149.5zM281 1737q0 41 28.5 69.5t69.5 28.5t69.5 -28.5t28.5 -69.5t-29 -70t-69 -29q-41 0 -69.5 29t-28.5 70zM575 1737q0 41 29.5 69.5t69.5 28.5q41 0 69.5 -28.5t28.5 -69.5t-28.5 -70t-69.5 -29t-70 29 t-29 70z" />
<glyph unicode="&#xdd;" horiz-adv-x="925" d="M61.5 1487.5q7.5 32.5 38.5 48.5q21 13 54 4.5t47 -39.5l293 -590l292 590l2 3q2 3 3.5 5t4 6t5.5 6.5t7 6.5t9 6.5t10.5 5t12.5 3.5t14 1q22 0 49 -19t27 -57q0 -24 -8 -32l-353 -713v-655q0 -31 -21.5 -53.5t-53.5 -22.5q-31 0 -53.5 22.5t-22.5 53.5v655l-352 713 q-12 19 -4.5 51.5zM313 1716q0 28 18.5 49.5t47.5 24.5q74 10 133 56.5t88 111.5q10 23 24.5 34t43.5 11q26 0 50.5 -21t24.5 -55q0 -18 -13.5 -48t-42.5 -68t-68 -72.5t-97.5 -62t-122.5 -36.5h-10q-31 0 -53.5 22t-22.5 54z" />
<glyph unicode="&#xde;" horiz-adv-x="815" d="M131 -197v1305q0 32 22 54t54 22q31 0 53.5 -22t22.5 -54v-129h79q141 0 239.5 -98t98.5 -238q0 -143 -99 -239.5t-236 -96.5h-82v-504q0 -32 -22.5 -53.5t-53.5 -21.5q-32 0 -54 21.5t-22 53.5zM283 457h82q71 0 127.5 52t56.5 134q0 74 -52.5 129t-134.5 55h-79v-370z " />
<glyph unicode="&#xdf;" horiz-adv-x="933" d="M317 90q0 26 21.5 51t54.5 25q8 0 36 -8t50 -8l158 675q-2 0 0 2q59 -33 92 -60q152 -128 152 -333q0 -91 -36.5 -174t-94 -139t-129.5 -89.5t-142 -33.5q-60 0 -111 21.5t-51 70.5z" />
<glyph unicode="&#xe0;" d="M88 246q0 52 19 98.5t47 80t74.5 65t88 51.5t102 41t101 32.5t101 27.5t86.5 24v206q0 71 -57.5 118.5t-137.5 47.5q-72 0 -136.5 -35.5t-105.5 -97.5q-20 -33 -61 -33q-3 0 -8 1t-18.5 6t-23.5 12t-18 22t-8 35q0 23 28 62t75 80t121.5 70.5t154.5 29.5q152 0 249 -95.5 t97 -222.5v-694q0 -10 1.5 -18t3.5 -12.5t4 -7.5t3 -5l2 -2q3 -2 10.5 2t17.5 9.5t18 5.5q36 0 55.5 -24t19.5 -52q0 -42 -39 -67t-82 -25q-53 0 -102 42t-53 109q-49 -58 -140.5 -108t-189.5 -50q-134 0 -216.5 81.5t-82.5 189.5zM240 246q0 -53 42 -86t105 -33 q89 0 176 58.5t144 138.5v184q-17 -5 -52 -14q-47 -13 -72 -20t-70.5 -20.5t-71.5 -24t-62.5 -26.5t-57.5 -32t-41.5 -35.5t-30 -42t-9.5 -47.5zM246 1538q-19 42 10 75.5t59 28.5q1 0 8.5 -1t14 -3t15.5 -6t17 -13t13 -22q29 -65 87.5 -111t133.5 -56q29 -3 47.5 -24.5 t18.5 -49.5q0 -32 -22.5 -54t-53.5 -22q-24 0 -64.5 12t-94 38t-106 80.5t-83.5 127.5z" />
<glyph unicode="&#xe1;" d="M88 246q0 52 19 98.5t47 80t74.5 65t88 51.5t102 41t101 32.5t101 27.5t86.5 24v206q0 71 -57.5 118.5t-137.5 47.5q-72 0 -136.5 -35.5t-105.5 -97.5q-20 -33 -61 -33q-3 0 -8 1t-18.5 6t-23.5 12t-18 22t-8 35q0 23 28 62t75 80t121.5 70.5t154.5 29.5q152 0 249 -95.5 t97 -222.5v-694q0 -10 1.5 -18t3.5 -12.5t4 -7.5t3 -5l2 -2q3 -2 10.5 2t17.5 9.5t18 5.5q36 0 55.5 -24t19.5 -52q0 -42 -39 -67t-82 -25q-53 0 -102 42t-53 109q-49 -58 -140.5 -108t-189.5 -50q-134 0 -216.5 81.5t-82.5 189.5zM240 246q0 -53 42 -86t105 -33 q89 0 176 58.5t144 138.5v184q-17 -5 -52 -14q-47 -13 -72 -20t-70.5 -20.5t-71.5 -24t-62.5 -26.5t-57.5 -32t-41.5 -35.5t-30 -42t-9.5 -47.5zM342 1352q0 28 18.5 49t47.5 24q74 10 133 56.5t88 111.5q10 23 24.5 34t42.5 11q27 0 51.5 -20.5t24.5 -54.5q0 -18 -13.5 -48 t-42.5 -68t-68 -72.5t-97.5 -62t-122.5 -36.5h-10q-31 0 -53.5 22t-22.5 54z" />
<glyph unicode="&#xe2;" d="M88 246q0 52 19 98.5t47 80t74.5 65t88 51.5t102 41t101 32.5t101 27.5t86.5 24v206q0 71 -57.5 118.5t-137.5 47.5q-72 0 -136.5 -35.5t-105.5 -97.5q-20 -33 -61 -33q-3 0 -8 1t-18.5 6t-23.5 12t-18 22t-8 35q0 23 28 62t75 80t121.5 70.5t154.5 29.5q152 0 249 -95.5 t97 -222.5v-694q0 -10 1.5 -18t3.5 -12.5t4 -7.5t3 -5l2 -2q3 -2 10.5 2t17.5 9.5t18 5.5q36 0 55.5 -24t19.5 -52q0 -42 -39 -67t-82 -25q-53 0 -102 42t-53 109q-49 -58 -140.5 -108t-189.5 -50q-134 0 -216.5 81.5t-82.5 189.5zM240 246q0 -53 42 -86t105 -33 q89 0 176 58.5t144 138.5v184q-17 -5 -52 -14q-47 -13 -72 -20t-70.5 -20.5t-71.5 -24t-62.5 -26.5t-57.5 -32t-41.5 -35.5t-30 -42t-9.5 -47.5zM307 1413q0 30 19 51l135 154q24 24 57 24t55 -24l136 -154q18 -24 18 -51q0 -26 -20.5 -50t-55.5 -24q-34 0 -57 25l-76 88 l-78 -88q-25 -25 -57 -25q-28 0 -52 19.5t-24 54.5z" />
<glyph unicode="&#xe3;" d="M88 246q0 52 19 98.5t47 80t74.5 65t88 51.5t102 41t101 32.5t101 27.5t86.5 24v206q0 71 -57.5 118.5t-137.5 47.5q-72 0 -136.5 -35.5t-105.5 -97.5q-20 -33 -61 -33q-3 0 -8 1t-18.5 6t-23.5 12t-18 22t-8 35q0 23 28 62t75 80t121.5 70.5t154.5 29.5q152 0 249 -95.5 t97 -222.5v-694q0 -10 1.5 -18t3.5 -12.5t4 -7.5t3 -5l2 -2q3 -2 10.5 2t17.5 9.5t18 5.5q36 0 55.5 -24t19.5 -52q0 -42 -39 -67t-82 -25q-53 0 -102 42t-53 109q-49 -58 -140.5 -108t-189.5 -50q-134 0 -216.5 81.5t-82.5 189.5zM234 1527q9 60 65 95q33 20 80 20 q40 0 77 -19t58.5 -42t44 -42t37.5 -19q12 0 12 8q-1 3 -3 8t-3.5 19t0.5 26.5t11.5 27t27.5 23.5q38 18 77.5 -8t39.5 -96q0 -65 -47 -111.5t-115 -46.5q-35 0 -69 14.5t-50 26.5t-45.5 40.5t-30.5 29.5q7 -18 7 -31q0 -27 -21 -50.5t-55 -23.5q-46 0 -76.5 45.5 t-21.5 105.5zM240 246q0 -53 42 -86t105 -33q89 0 176 58.5t144 138.5v184q-17 -5 -52 -14q-47 -13 -72 -20t-70.5 -20.5t-71.5 -24t-62.5 -26.5t-57.5 -32t-41.5 -35.5t-30 -42t-9.5 -47.5z" />
<glyph unicode="&#xe4;" d="M88 246q0 52 19 98.5t47 80t74.5 65t88 51.5t102 41t101 32.5t101 27.5t86.5 24v206q0 71 -57.5 118.5t-137.5 47.5q-72 0 -136.5 -35.5t-105.5 -97.5q-20 -33 -61 -33q-3 0 -8 1t-18.5 6t-23.5 12t-18 22t-8 35q0 23 28 62t75 80t121.5 70.5t154.5 29.5q152 0 249 -95.5 t97 -222.5v-694q0 -10 1.5 -18t3.5 -12.5t4 -7.5t3 -5l2 -2q3 -2 10.5 2t17.5 9.5t18 5.5q36 0 55.5 -24t19.5 -52q0 -42 -39 -67t-82 -25q-53 0 -102 42t-53 109q-49 -58 -140.5 -108t-189.5 -50q-134 0 -216.5 81.5t-82.5 189.5zM240 246q0 -53 42 -86t105 -33 q89 0 176 58.5t144 138.5v184q-17 -5 -52 -14q-47 -13 -72 -20t-70.5 -20.5t-71.5 -24t-62.5 -26.5t-57.5 -32t-41.5 -35.5t-30 -42t-9.5 -47.5zM240 1540q0 41 28.5 69.5t69.5 28.5t69.5 -28.5t28.5 -69.5t-29 -69.5t-69 -28.5q-41 0 -69.5 28.5t-28.5 69.5zM535 1540 q0 41 29 69.5t69 28.5q41 0 69.5 -28.5t28.5 -69.5t-28.5 -69.5t-69.5 -28.5t-69.5 28.5t-28.5 69.5z" />
<glyph unicode="&#xe5;" d="M88 246q0 52 19 98.5t47 80t74.5 65t88 51.5t102 41t101 32.5t101 27.5t86.5 24v206q0 71 -57.5 118.5t-137.5 47.5q-72 0 -136.5 -35.5t-105.5 -97.5q-20 -33 -61 -33q-3 0 -8 1t-18.5 6t-23.5 12t-18 22t-8 35q0 23 28 62t75 80t121.5 70.5t154.5 29.5q152 0 249 -95.5 t97 -222.5v-694q0 -10 1.5 -18t3.5 -12.5t4 -7.5t3 -5l2 -2q3 -2 10.5 2t17.5 9.5t18 5.5q36 0 55.5 -24t19.5 -52q0 -42 -39 -67t-82 -25q-53 0 -102 42t-53 109q-49 -58 -140.5 -108t-189.5 -50q-134 0 -216.5 81.5t-82.5 189.5zM240 246q0 -53 42 -86t105 -33 q89 0 176 58.5t144 138.5v184q-17 -5 -52 -14q-47 -13 -72 -20t-70.5 -20.5t-71.5 -24t-62.5 -26.5t-57.5 -32t-41.5 -35.5t-30 -42t-9.5 -47.5zM326 1505q0 66 47.5 114t113.5 48t114 -48t48 -114t-48 -114t-114 -48t-113.5 48t-47.5 114zM428 1505q0 -25 17 -42t42 -17 t42.5 17t17.5 42t-17.5 42.5t-42.5 17.5t-42 -17.5t-17 -42.5z" />
<glyph unicode="&#xe6;" horiz-adv-x="1499" d="M74 246q0 52 17.5 98t48 80.5t72 64t88 51.5t98.5 40.5t101.5 33t98.5 27.5l45 12q9 122 47 221v3q0 61 -53 111t-141 50q-72 0 -136 -35.5t-104 -97.5q-23 -33 -63 -33q-3 0 -8 1t-18.5 6t-23.5 12t-18 22t-8 35q0 23 28.5 62t75.5 80t121.5 70.5t153.5 29.5h2 q87 0 163 -37.5t125 -105.5l15 16q114 127 278 127q160 0 268.5 -124t110.5 -302v-4q0 -71 -18 -109.5t-64 -38.5h-583v-24q0 -201 97.5 -328t235.5 -127q48 0 85.5 12.5t59 30.5t39 36.5t36 31t38.5 12.5q29 0 52.5 -21t23.5 -55q0 -24 -25.5 -57t-68 -65t-107.5 -54 t-133 -22q-105 0 -199.5 51t-160.5 139q-81 -86 -183 -141.5t-212 -55.5q-134 0 -215.5 81t-81.5 190zM223 246q0 -53 42.5 -86t105.5 -33q28 0 60 7.5t75 26.5t91 58.5t91 95.5q-33 86 -43 183q-68 -19 -111 -32t-98 -32t-88.5 -37.5t-64.5 -41.5t-45.5 -50.5t-14.5 -58.5z M813 764h494q-2 113 -66 193.5t-162 80.5q-86 0 -158 -67.5t-108 -206.5z" />
<glyph unicode="&#xe7;" horiz-adv-x="995" d="M68 586q0 169 65 308.5t174 217.5t236 78q65 0 123 -21.5t96.5 -53t66.5 -66.5t40 -62t10 -39q0 -1 -1 -6.5l-2 -11t-4.5 -13.5t-8.5 -14t-13 -13t-19 -11q-30 -13 -58 -1t-40 40q-26 57 -77.5 89.5t-112.5 32.5q-91 0 -166.5 -64.5t-116.5 -168t-41 -221.5 q0 -121 41.5 -224.5t120.5 -167t178 -63.5q64 0 115.5 27t83.5 69q29 29 59 29t53 -22t23 -54q0 -43 -70 -103.5t-168 -84.5q68 -50 68 -135q0 -73 -55 -129t-142 -56q-56 0 -107.5 29t-51.5 76q0 29 20.5 52.5t54.5 23.5q21 0 43 -14.5t41 -14.5t32 9.5t15 23.5q0 8 -5 12 t-9 0q-29 -8 -37 -8q-27 0 -50 19.5t-23 53.5q0 21 4 25l10 33q-168 40 -281.5 199.5t-113.5 394.5z" />
<glyph unicode="&#xe8;" d="M70 588q0 166 54 302.5t155 218t229 81.5q102 0 188 -54.5t138 -153t53 -218.5v-4q0 -71 -18 -109.5t-64 -38.5h-584v-24q0 -203 98 -329t238 -126q48 0 85 12.5t58.5 30.5t38.5 36.5t35.5 31t38.5 12.5q29 0 52.5 -21t23.5 -55q0 -24 -26 -57t-68 -65t-106.5 -54 t-131.5 -22q-98 0 -186.5 43.5t-155 120.5t-106 192t-39.5 250zM242 764h493q-1 65 -23 121t-58 89.5t-81 52.5t-94 10.5t-93.5 -36.5t-83 -89.5t-60.5 -147.5zM246 1538q-19 42 10 75.5t59 28.5q1 0 8.5 -1t14 -3t15.5 -6t17 -13t13 -22q29 -65 87.5 -111t133.5 -56 q29 -3 47.5 -24.5t18.5 -49.5q0 -32 -22.5 -54t-53.5 -22q-24 0 -64.5 12t-94 38t-106 80.5t-83.5 127.5z" />
<glyph unicode="&#xe9;" d="M70 588q0 166 54 302.5t155 218t229 81.5q102 0 188 -54.5t138 -153t53 -218.5v-4q0 -71 -18 -109.5t-64 -38.5h-584v-24q0 -203 98 -329t238 -126q48 0 85 12.5t58.5 30.5t38.5 36.5t35.5 31t38.5 12.5q29 0 52.5 -21t23.5 -55q0 -24 -26 -57t-68 -65t-106.5 -54 t-131.5 -22q-98 0 -186.5 43.5t-155 120.5t-106 192t-39.5 250zM242 764h493q-1 65 -23 121t-58 89.5t-81 52.5t-94 10.5t-93.5 -36.5t-83 -89.5t-60.5 -147.5zM342 1352q0 28 18.5 49t47.5 24q74 10 133 56.5t88 111.5q10 23 24.5 34t42.5 11q27 0 51.5 -20.5t24.5 -54.5 q0 -18 -13.5 -48t-42.5 -68t-68 -72.5t-97.5 -62t-122.5 -36.5h-10q-31 0 -53.5 22t-22.5 54z" />
<glyph unicode="&#xea;" d="M70 588q0 166 54 302.5t155 218t229 81.5q102 0 188 -54.5t138 -153t53 -218.5v-4q0 -71 -18 -109.5t-64 -38.5h-584v-24q0 -203 98 -329t238 -126q48 0 85 12.5t58.5 30.5t38.5 36.5t35.5 31t38.5 12.5q29 0 52.5 -21t23.5 -55q0 -24 -26 -57t-68 -65t-106.5 -54 t-131.5 -22q-98 0 -186.5 43.5t-155 120.5t-106 192t-39.5 250zM242 764h493q-1 65 -23 121t-58 89.5t-81 52.5t-94 10.5t-93.5 -36.5t-83 -89.5t-60.5 -147.5zM307 1413q0 30 19 51l135 154q24 24 57 24t55 -24l136 -154q18 -24 18 -51q0 -26 -20.5 -50t-55.5 -24 q-34 0 -57 25l-76 88l-78 -88q-25 -25 -57 -25q-28 0 -52 19.5t-24 54.5z" />
<glyph unicode="&#xeb;" d="M70 588q0 166 54 302.5t155 218t229 81.5q102 0 188 -54.5t138 -153t53 -218.5v-4q0 -71 -18 -109.5t-64 -38.5h-584v-24q0 -203 98 -329t238 -126q48 0 85 12.5t58.5 30.5t38.5 36.5t35.5 31t38.5 12.5q29 0 52.5 -21t23.5 -55q0 -24 -26 -57t-68 -65t-106.5 -54 t-131.5 -22q-98 0 -186.5 43.5t-155 120.5t-106 192t-39.5 250zM240 1540q0 41 28.5 69.5t69.5 28.5t69.5 -28.5t28.5 -69.5t-29 -69.5t-69 -28.5q-41 0 -69.5 28.5t-28.5 69.5zM242 764h493q-1 65 -23 121t-58 89.5t-81 52.5t-94 10.5t-93.5 -36.5t-83 -89.5t-60.5 -147.5z M535 1540q0 41 29 69.5t69 28.5q41 0 69.5 -28.5t28.5 -69.5t-28.5 -69.5t-69.5 -28.5t-69.5 28.5t-28.5 69.5z" />
<glyph unicode="&#xec;" horiz-adv-x="528" d="M18 1124q0 31 22 53.5t54 22.5h244q30 0 53 -21.5t23 -54.5v-1056q0 -31 -22 -53.5t-54 -22.5q-31 0 -53.5 22.5t-22.5 53.5v981h-168q-32 0 -54 21.5t-22 53.5zM82 1538q-19 42 10 75.5t60 28.5l8 -1q8 -1 14.5 -3t15 -6t16.5 -13t13 -22q29 -65 87.5 -111t133.5 -56 q29 -3 47.5 -24.5t18.5 -49.5q0 -32 -22.5 -54t-53.5 -22q-24 0 -64.5 12t-94 38t-106 80.5t-83.5 127.5z" />
<glyph unicode="&#xed;" horiz-adv-x="528" d="M18 1124q0 31 22 53.5t54 22.5h244q30 0 53 -21.5t23 -54.5v-1056q0 -31 -22 -53.5t-54 -22.5q-31 0 -53.5 22.5t-22.5 53.5v981h-168q-32 0 -54 21.5t-22 53.5zM154 1352q0 28 18 49t47 24q74 10 133 56.5t88 111.5q10 23 24.5 34t43.5 11q27 0 51.5 -20.5t24.5 -54.5 q0 -18 -13.5 -48t-42.5 -68t-68 -72.5t-97.5 -62t-122.5 -36.5h-11q-31 0 -53 22t-22 54z" />
<glyph unicode="&#xee;" horiz-adv-x="528" d="M18 1124q0 31 22 53.5t54 22.5h244q30 0 53 -21.5t23 -54.5v-1056q0 -31 -22 -53.5t-54 -22.5q-31 0 -53.5 22.5t-22.5 53.5v981h-168q-32 0 -54 21.5t-22 53.5zM90 1413q0 30 19 51l135 154q24 24 57 24t55 -24l136 -154q18 -24 18 -51q0 -26 -20.5 -50t-55.5 -24 q-34 0 -57 25l-76 88l-78 -88q-25 -25 -57 -25q-28 0 -52 19.5t-24 54.5z" />
<glyph unicode="&#xef;" horiz-adv-x="528" d="M14 1540q0 41 29 69.5t70 28.5t69.5 -28.5t28.5 -69.5t-29 -69.5t-69 -28.5q-41 0 -70 28.5t-29 69.5zM18 1124q0 31 22 53.5t54 22.5h244q30 0 53 -21.5t23 -54.5v-1056q0 -31 -22 -53.5t-54 -22.5q-31 0 -53.5 22.5t-22.5 53.5v981h-168q-32 0 -54 21.5t-22 53.5z M309 1540q0 41 29.5 69.5t69.5 28.5q41 0 69.5 -28.5t28.5 -69.5t-28.5 -69.5t-69.5 -28.5t-70 28.5t-29 69.5z" />
<glyph unicode="&#xf0;" horiz-adv-x="1155" d="M49 760q0 32 22 54t54 22h129v632q0 29 21 52.5t53 23.5h245q77 0 151.5 -25.5t142.5 -76.5t122 -134.5t84 -191.5q39 -142 39 -336q0 -525 -276 -708q-122 -80 -261 -80h-247q-29 0 -51.5 21.5t-22.5 54.5v616h-129q-32 0 -54 22.5t-22 53.5zM403 143h172 q110 0 205 74.5t140 220.5q41 129 41 342q0 397 -181 539q-93 74 -207 74h-170v-557h136q31 0 53 -22t22 -54q0 -31 -22 -53.5t-53 -22.5h-136v-541z" />
<glyph unicode="&#xf1;" horiz-adv-x="991" d="M96 1114q0 20 8 35t18 22.5t22.5 12t19 5.5t8.5 1q29 0 49.5 -18t31 -48t15 -62.5t4.5 -68.5l25 39q137 162 305 162q144 0 245.5 -98t106.5 -238v-799q0 -32 -22 -53.5t-53 -21.5t-53.5 21.5t-22.5 53.5v797q-2 72 -57 129t-144 57q-101 0 -193 -76t-137 -200v-707 q0 -32 -21.5 -53.5t-53.5 -21.5q-31 0 -52.5 21.5t-21.5 53.5v965q0 21 -13.5 49.5t-13.5 40.5zM320 1527q9 60 65 95q33 20 80 20q40 0 77 -19t58.5 -42t44 -42t37.5 -19q12 0 12 8q-1 3 -3 8t-3.5 19t0.5 26.5t11.5 27t27.5 23.5q38 18 77.5 -8t39.5 -96q0 -65 -47 -111.5 t-115 -46.5q-35 0 -69 14.5t-50 26.5t-45.5 40.5t-30.5 29.5q7 -17 7 -31q0 -27 -21 -50.5t-55 -23.5q-46 0 -76.5 45.5t-21.5 105.5z" />
<glyph unicode="&#xf2;" d="M76 586q0 141 29 251t74 175.5t105.5 107.5t116 57t113.5 15q41 0 80.5 -7t84.5 -25.5t83.5 -47.5t75 -76t62 -107t41.5 -145t17 -186v-43q0 -262 -122 -418.5t-322 -156.5q-58 0 -113.5 15.5t-116 57.5t-105.5 107.5t-74 175.5t-29 250zM227 586q0 -93 13 -167t36 -122 t51 -82.5t62 -51.5t63.5 -24.5t61.5 -7.5q40 0 75.5 9t76.5 38t70.5 76.5t49.5 131.5t21 196q0 324 -156 422q-1 0 -8.5 4.5t-14 7.5t-19.5 8t-26 8t-31.5 5.5t-37.5 2.5q-39 0 -74.5 -10t-75.5 -40t-69.5 -78t-48.5 -132t-19 -194zM246 1538q-19 42 10 75.5t59 28.5 q1 0 8.5 -1t14 -3t15.5 -6t17 -13t13 -22q29 -65 87.5 -111t133.5 -56q29 -3 47.5 -24.5t18.5 -49.5q0 -32 -22.5 -54t-53.5 -22q-24 0 -64.5 12t-94 38t-106 80.5t-83.5 127.5z" />
<glyph unicode="&#xf3;" d="M76 586q0 141 29 251t74 175.5t105.5 107.5t116 57t113.5 15q41 0 80.5 -7t84.5 -25.5t83.5 -47.5t75 -76t62 -107t41.5 -145t17 -186v-43q0 -262 -122 -418.5t-322 -156.5q-58 0 -113.5 15.5t-116 57.5t-105.5 107.5t-74 175.5t-29 250zM227 586q0 -93 13 -167t36 -122 t51 -82.5t62 -51.5t63.5 -24.5t61.5 -7.5q40 0 75.5 9t76.5 38t70.5 76.5t49.5 131.5t21 196q0 324 -156 422q-1 0 -8.5 4.5t-14 7.5t-19.5 8t-26 8t-31.5 5.5t-37.5 2.5q-39 0 -74.5 -10t-75.5 -40t-69.5 -78t-48.5 -132t-19 -194zM342 1352q0 28 18.5 49t47.5 24 q74 10 133 56.5t88 111.5q10 23 24.5 34t42.5 11q27 0 51.5 -20.5t24.5 -54.5q0 -18 -13.5 -48t-42.5 -68t-68 -72.5t-97.5 -62t-122.5 -36.5h-10q-31 0 -53.5 22t-22.5 54z" />
<glyph unicode="&#xf4;" d="M76 586q0 141 29 251t74 175.5t105.5 107.5t116 57t113.5 15q41 0 80.5 -7t84.5 -25.5t83.5 -47.5t75 -76t62 -107t41.5 -145t17 -186v-43q0 -262 -122 -418.5t-322 -156.5q-58 0 -113.5 15.5t-116 57.5t-105.5 107.5t-74 175.5t-29 250zM227 586q0 -93 13 -167t36 -122 t51 -82.5t62 -51.5t63.5 -24.5t61.5 -7.5q40 0 75.5 9t76.5 38t70.5 76.5t49.5 131.5t21 196q0 324 -156 422q-1 0 -8.5 4.5t-14 7.5t-19.5 8t-26 8t-31.5 5.5t-37.5 2.5q-39 0 -74.5 -10t-75.5 -40t-69.5 -78t-48.5 -132t-19 -194zM307 1413q0 30 19 51l135 154 q24 24 57 24t55 -24l136 -154q18 -24 18 -51q0 -26 -20.5 -50t-55.5 -24q-34 0 -57 25l-76 88l-78 -88q-25 -25 -57 -25q-28 0 -52 19.5t-24 54.5z" />
<glyph unicode="&#xf5;" d="M76 586q0 141 29 251t74 175.5t105.5 107.5t116 57t113.5 15q41 0 80.5 -7t84.5 -25.5t83.5 -47.5t75 -76t62 -107t41.5 -145t17 -186v-43q0 -262 -122 -418.5t-322 -156.5q-58 0 -113.5 15.5t-116 57.5t-105.5 107.5t-74 175.5t-29 250zM227 586q0 -93 13 -167t36 -122 t51 -82.5t62 -51.5t63.5 -24.5t61.5 -7.5q40 0 75.5 9t76.5 38t70.5 76.5t49.5 131.5t21 196q0 324 -156 422q-1 0 -8.5 4.5t-14 7.5t-19.5 8t-26 8t-31.5 5.5t-37.5 2.5q-39 0 -74.5 -10t-75.5 -40t-69.5 -78t-48.5 -132t-19 -194zM234 1527q9 60 65 95q33 20 80 20 q40 0 77 -19t58.5 -42t44 -42t37.5 -19q12 0 12 8q-1 3 -3 8t-3.5 19t0.5 26.5t11.5 27t27.5 23.5q38 18 77.5 -8t39.5 -96q0 -65 -47 -111.5t-115 -46.5q-35 0 -69 14.5t-50 26.5t-45.5 40.5t-30.5 29.5q7 -18 7 -31q0 -27 -21 -50.5t-55 -23.5q-46 0 -76.5 45.5 t-21.5 105.5z" />
<glyph unicode="&#xf6;" d="M76 586q0 141 29 251t74 175.5t105.5 107.5t116 57t113.5 15q41 0 80.5 -7t84.5 -25.5t83.5 -47.5t75 -76t62 -107t41.5 -145t17 -186v-43q0 -262 -122 -418.5t-322 -156.5q-58 0 -113.5 15.5t-116 57.5t-105.5 107.5t-74 175.5t-29 250zM227 586q0 -93 13 -167t36 -122 t51 -82.5t62 -51.5t63.5 -24.5t61.5 -7.5q40 0 75.5 9t76.5 38t70.5 76.5t49.5 131.5t21 196q0 324 -156 422q-1 0 -8.5 4.5t-14 7.5t-19.5 8t-26 8t-31.5 5.5t-37.5 2.5q-39 0 -74.5 -10t-75.5 -40t-69.5 -78t-48.5 -132t-19 -194zM272 1540q0 41 29 69.5t70 28.5 t69.5 -28.5t28.5 -69.5t-29 -69.5t-69 -28.5q-41 0 -70 28.5t-29 69.5zM567 1540q0 41 29.5 69.5t69.5 28.5q41 0 69.5 -28.5t28.5 -69.5t-28.5 -69.5t-69.5 -28.5t-70 28.5t-29 69.5z" />
<glyph unicode="&#xf7;" horiz-adv-x="761" d="M37 451q0 32 22 53.5t54 21.5h520q32 0 54 -21.5t22 -53.5q0 -31 -22 -52.5t-54 -21.5h-520q-32 0 -54 21.5t-22 52.5zM289 57q0 41 28.5 70t69.5 29t69.5 -29t28.5 -70q0 -40 -28.5 -69t-69.5 -29t-69.5 29t-28.5 69zM289 795q0 41 28.5 70.5t69.5 29.5t69.5 -29.5 t28.5 -70.5q0 -40 -28.5 -69.5t-69.5 -29.5t-69.5 29.5t-28.5 69.5z" />
<glyph unicode="&#xf8;" horiz-adv-x="1009" d="M76 754v18q0 124 8 216.5t30 190t67.5 173t115.5 127.5q52 40 102 56.5t115 16.5q121 0 209 -63l25 53q3 4 11.5 15t13.5 15.5t16.5 9.5t25.5 5q25 0 50.5 -21t25.5 -55q0 -18 -6 -30l-47 -109q36 -52 61 -120.5t36.5 -123t18 -132t7 -113.5t0.5 -103q0 -95 -3.5 -166.5 t-17 -158t-36.5 -152t-65 -128.5t-100 -107q-99 -76 -225 -76q-135 0 -244 96l-39 -90q-2 -3 -12 -15t-14.5 -16t-16.5 -9t-26 -5q-25 0 -50.5 21t-25.5 55q0 2 3 15t3 15l74 166q-42 81 -63.5 195.5t-24 178t-2.5 155.5zM225 772q0 -225 29 -348l408 924q-59 53 -148 53 q-39 0 -74.5 -12t-75.5 -49t-69 -95t-48 -159.5t-20 -233.5q-2 -51 -2 -80zM338 240q75 -97 176 -97q33 0 63.5 9t65 30t63 62.5t52.5 100t37.5 149.5t13.5 204v82q0 145 -9 239t-40 177z" />
<glyph unicode="&#xf9;" horiz-adv-x="1177" d="M92 1114q0 20 7.5 35t18 22.5t22.5 12t18.5 5.5t9.5 1q33 0 57 -29t33.5 -65t9.5 -70v-731q0 -68 49 -115t121 -47q144 0 336 197v784q0 32 22.5 54t53.5 22t53.5 -22t22.5 -54v-936q0 -8 1 -14t2 -10.5t2.5 -8t3 -5.5t2.5 -3.5t2 -2.5l1 -1q5 -3 20 7t25 10 q36 0 56 -24.5t20 -51.5q0 -42 -39 -67t-82 -25q-53 0 -100 38.5t-60 108.5l-26 -18q-162 -127 -316 -127q-138 0 -229.5 91t-91.5 220v731q0 20 -12.5 48t-12.5 40zM352 1538q-19 42 10 75.5t60 28.5l8 -1q8 -1 14.5 -3t15 -6t16.5 -13t13 -22q29 -65 88 -111t134 -56 q29 -3 47 -24.5t18 -49.5q0 -32 -22.5 -54t-53.5 -22q-24 0 -64.5 12t-94 38t-106 80.5t-83.5 127.5z" />
<glyph unicode="&#xfa;" horiz-adv-x="1177" d="M92 1114q0 20 7.5 35t18 22.5t22.5 12t18.5 5.5t9.5 1q33 0 57 -29t33.5 -65t9.5 -70v-731q0 -68 49 -115t121 -47q144 0 336 197v784q0 32 22.5 54t53.5 22t53.5 -22t22.5 -54v-936q0 -8 1 -14t2 -10.5t2.5 -8t3 -5.5t2.5 -3.5t2 -2.5l1 -1q5 -3 20 7t25 10 q36 0 56 -24.5t20 -51.5q0 -42 -39 -67t-82 -25q-53 0 -100 38.5t-60 108.5l-26 -18q-162 -127 -316 -127q-138 0 -229.5 91t-91.5 220v731q0 20 -12.5 48t-12.5 40zM373 1352q0 28 18.5 49t46.5 24q74 10 133 56.5t88 111.5q20 45 70 45q26 0 51 -20.5t25 -54.5 q0 -23 -23 -64t-64 -87.5t-110.5 -85.5t-148.5 -50h-10q-31 0 -53.5 22t-22.5 54z" />
<glyph unicode="&#xfb;" horiz-adv-x="1177" d="M92 1114q0 20 7.5 35t18 22.5t22.5 12t18.5 5.5t9.5 1q33 0 57 -29t33.5 -65t9.5 -70v-731q0 -68 49 -115t121 -47q144 0 336 197v784q0 32 22.5 54t53.5 22t53.5 -22t22.5 -54v-936q0 -8 1 -14t2 -10.5t2.5 -8t3 -5.5t2.5 -3.5t2 -2.5l1 -1q5 -3 20 7t25 10 q36 0 56 -24.5t20 -51.5q0 -42 -39 -67t-82 -25q-53 0 -100 38.5t-60 108.5l-26 -18q-162 -127 -316 -127q-138 0 -229.5 91t-91.5 220v731q0 20 -12.5 48t-12.5 40zM373 1413q0 31 18 51l135 154q24 24 58 24q33 0 55 -24l135 -154q19 -25 19 -51t-20.5 -50t-55.5 -24 t-58 25l-75 88l-78 -88q-25 -25 -57 -25q-28 0 -52 19.5t-24 54.5z" />
<glyph unicode="&#xfc;" horiz-adv-x="1177" d="M92 1114q0 20 7.5 35t18 22.5t22.5 12t18.5 5.5t9.5 1q33 0 57 -29t33.5 -65t9.5 -70v-731q0 -68 49 -115t121 -47q144 0 336 197v784q0 32 22.5 54t53.5 22t53.5 -22t22.5 -54v-936q0 -8 1 -14t2 -10.5t2.5 -8t3 -5.5t2.5 -3.5t2 -2.5l1 -1q5 -3 20 7t25 10 q36 0 56 -24.5t20 -51.5q0 -42 -39 -67t-82 -25q-53 0 -100 38.5t-60 108.5l-26 -18q-162 -127 -316 -127q-138 0 -229.5 91t-91.5 220v731q0 20 -12.5 48t-12.5 40zM330 1540q0 41 28.5 69.5t69.5 28.5t69.5 -28.5t28.5 -69.5t-29 -69.5t-69 -28.5q-41 0 -69.5 28.5 t-28.5 69.5zM625 1540q0 41 29 69.5t69 28.5q41 0 69.5 -28.5t28.5 -69.5t-28.5 -69.5t-69.5 -28.5t-69.5 28.5t-28.5 69.5z" />
<glyph unicode="&#xfd;" horiz-adv-x="1034" d="M92 1104q0 19 7.5 34t17.5 22.5t22 12.5t18.5 6t8.5 1q26 0 47 -17t32 -43.5t17 -53.5t6 -52v-707q6 -79 68 -133.5t147 -54.5q106 0 185.5 82.5t79.5 199.5v703q0 31 21.5 53.5t53.5 22.5q31 0 52.5 -22.5t21.5 -53.5v-1174q0 -77 -31 -149t-85.5 -126.5t-134.5 -87 t-171 -32.5q-176 0 -315 115q-27 27 -27 59q0 28 19.5 52t54.5 24q19 0 44 -15.5t49.5 -33.5t71 -33.5t103.5 -15.5q117 0 195 72t78 171v138q-121 -101 -265 -101q-135 0 -244 90.5t-122 243.5v713q0 20 -12.5 49t-12.5 41zM342 1352q0 28 18.5 49t47.5 24q74 10 133 56.5 t88 111.5q10 23 24.5 34t42.5 11q27 0 51.5 -20.5t24.5 -54.5q0 -18 -13.5 -48t-42.5 -68t-68 -72.5t-97.5 -62t-122.5 -36.5h-10q-31 0 -53.5 22t-22.5 54z" />
<glyph unicode="&#xfe;" horiz-adv-x="815" d="M131 -197v1305q0 32 22 54t54 22q31 0 53.5 -22t22.5 -54v-129h79q141 0 239.5 -98t98.5 -238q0 -143 -99 -239.5t-236 -96.5h-82v-504q0 -32 -22.5 -53.5t-53.5 -21.5q-32 0 -54 21.5t-22 53.5zM283 457h82q71 0 127.5 52t56.5 134q0 74 -52.5 129t-134.5 55h-79v-370z " />
<glyph unicode="&#xff;" horiz-adv-x="1034" d="M92 1104q0 19 7.5 34t17.5 22.5t22 12.5t18.5 6t8.5 1q26 0 47 -17t32 -43.5t17 -53.5t6 -52v-707q6 -79 68 -133.5t147 -54.5q106 0 185.5 82.5t79.5 199.5v703q0 31 21.5 53.5t53.5 22.5q31 0 52.5 -22.5t21.5 -53.5v-1174q0 -77 -31 -149t-85.5 -126.5t-134.5 -87 t-171 -32.5q-176 0 -315 115q-27 27 -27 59q0 28 19.5 52t54.5 24q19 0 44 -15.5t49.5 -33.5t71 -33.5t103.5 -15.5q117 0 195 72t78 171v138q-121 -101 -265 -101q-135 0 -244 90.5t-122 243.5v713q0 20 -12.5 49t-12.5 41zM301 1540q0 41 28.5 69.5t69.5 28.5t70 -28.5 t29 -69.5t-29.5 -69.5t-69.5 -28.5q-41 0 -69.5 28.5t-28.5 69.5zM596 1540q0 41 29 69.5t69 28.5q41 0 70 -28.5t29 -69.5t-29 -69.5t-70 -28.5t-69.5 28.5t-28.5 69.5z" />
<glyph unicode="&#x152;" horiz-adv-x="1568" d="M100 768q0 113 1 161.5t11.5 129t32.5 147.5q48 150 161 244t269 94q135 0 244 -71q2 29 22.5 50t53.5 21h551q31 0 53.5 -22.5t22.5 -53.5t-22.5 -53t-53.5 -22h-475v-537h434q31 0 53.5 -22.5t22.5 -53.5q0 -32 -22.5 -53.5t-53.5 -21.5h-434v-562h475q31 0 53.5 -22 t22.5 -53t-22.5 -53.5t-53.5 -22.5h-551q-29 0 -52 20t-24 51q-112 -73 -244 -73q-156 0 -269 93.5t-161 244.5q-22 68 -32.5 148.5t-11.5 129t-1 162.5zM252 749q0 -60 0.5 -91.5t3.5 -89.5t9.5 -93.5t19 -84.5t30.5 -82t46.5 -67t64.5 -57q71 -43 149 -43q160 0 244 133 v983q-90 136 -244 136q-43 0 -83 -11t-85 -43.5t-77.5 -85t-54.5 -144t-23 -210.5v-131v-19z" />
<glyph unicode="&#x153;" horiz-adv-x="1638" d="M70 586q0 141 29 251t74 175.5t105.5 107.5t116 57t113.5 15q57 0 108.5 -13.5t86 -32.5t65.5 -45t46 -44t28 -37q58 78 133.5 121t151 48t149 -22.5t130 -81.5t92 -138t36.5 -183v-4q0 -71 -18 -109.5t-64 -38.5h-584v-24q0 -203 98 -329t238 -126q48 0 85.5 12.5 t58.5 30.5t38.5 36.5t35.5 31t38 12.5q29 0 52.5 -21t23.5 -55q0 -23 -25.5 -56t-67.5 -65t-106.5 -54.5t-132.5 -22.5q-103 0 -196 49t-158 131q-125 -182 -342 -182q-58 0 -113.5 15t-116 57t-105.5 107.5t-74 175.5t-29 251zM221 586q2 -153 36.5 -259t119.5 -159 q62 -37 131 -37q55 0 100.5 18t75.5 48t48.5 58.5t31.5 59.5q-47 122 -47 273q0 146 43 270q-76 182 -252 182q-40 0 -75 -9t-75 -38.5t-68.5 -77.5t-48 -132.5t-20.5 -196.5zM891 764h491q-1 65 -23 120.5t-58 89.5t-81 53t-93.5 11t-93 -36t-83 -90t-59.5 -148z" />
<glyph unicode="&#x178;" horiz-adv-x="925" d="M46.5 1493q8.5 33 39.5 49q20 12 52 4t48 -39l293 -589l293 589l4 5q4 6 9 12t12.5 12t18.5 10t24 4q21 0 48 -18.5t27 -56.5q0 -19 -8 -35l-352 -711v-655q0 -32 -22.5 -54t-53.5 -22t-53.5 22t-22.5 54v655l-352 711q-13 20 -4.5 53zM238 1739q0 41 29.5 70.5 t70.5 29.5q40 0 69 -29.5t29 -70.5q0 -40 -29 -69.5t-69 -29.5q-41 0 -70.5 29.5t-29.5 69.5zM535 1739q0 41 28.5 70.5t69.5 29.5t69.5 -29.5t28.5 -70.5q0 -40 -28.5 -69.5t-69.5 -29.5t-69.5 29.5t-28.5 69.5z" />
<glyph unicode="&#x2000;" horiz-adv-x="1003" />
<glyph unicode="&#x2001;" horiz-adv-x="2007" />
<glyph unicode="&#x2002;" horiz-adv-x="1003" />
<glyph unicode="&#x2003;" horiz-adv-x="2007" />
<glyph unicode="&#x2004;" horiz-adv-x="669" />
<glyph unicode="&#x2005;" horiz-adv-x="501" />
<glyph unicode="&#x2006;" horiz-adv-x="334" />
<glyph unicode="&#x2007;" horiz-adv-x="334" />
<glyph unicode="&#x2008;" horiz-adv-x="250" />
<glyph unicode="&#x2009;" horiz-adv-x="401" />
<glyph unicode="&#x200a;" horiz-adv-x="111" />
<glyph unicode="&#x2010;" horiz-adv-x="737" d="M37 676q0 32 22 54t54 22h520q32 0 54 -22t22 -54q0 -31 -22 -52.5t-54 -21.5h-520q-32 0 -54 21.5t-22 52.5z" />
<glyph unicode="&#x2011;" horiz-adv-x="737" d="M37 676q0 32 22 54t54 22h520q32 0 54 -22t22 -54q0 -31 -22 -52.5t-54 -21.5h-520q-32 0 -54 21.5t-22 52.5z" />
<glyph unicode="&#x2012;" horiz-adv-x="737" d="M37 676q0 32 22 54t54 22h520q32 0 54 -22t22 -54q0 -31 -22 -52.5t-54 -21.5h-520q-32 0 -54 21.5t-22 52.5z" />
<glyph unicode="&#x2013;" horiz-adv-x="1089" d="M37 676q0 32 33.5 54t82.5 22h792q49 0 82.5 -22t33.5 -54q0 -31 -33.5 -52.5t-82.5 -21.5h-792q-49 0 -82.5 21.5t-33.5 52.5z" />
<glyph unicode="&#x2014;" horiz-adv-x="2113" d="M37 676q0 32 67 54t165 22h1584q98 0 165 -22t67 -54q0 -31 -67 -52.5t-165 -21.5h-1584q-98 0 -165 21.5t-67 52.5z" />
<glyph unicode="&#x202f;" horiz-adv-x="401" />
<glyph unicode="&#x205f;" horiz-adv-x="501" />
<glyph unicode="&#x20ac;" horiz-adv-x="1071" d="M4 520q0 31 22.5 53.5t53.5 22.5h57v4h-10q-31 0 -53.5 22t-22.5 54q0 31 22.5 53.5t53.5 22.5h29q24 108 73 194t112 138t132.5 79t140.5 27q70 -1 130 -24t96.5 -55t62.5 -67t36 -60.5t9 -35.5q0 -1 -1 -8.5t-3 -14.5t-6 -16t-13 -17t-22 -13q-31 -13 -59.5 -1 t-40.5 40q-24 57 -76 89.5t-113 32.5q-94 0 -179.5 -77t-123.5 -211h543q32 0 54 -22.5t22 -53.5q0 -32 -22 -54t-54 -22h-565v-4h520q31 0 53.5 -22.5t22.5 -53.5q0 -32 -22.5 -54t-53.5 -22h-504q35 -151 127 -232t197 -81q123 0 200 96q2 3 8 9t20.5 13t31.5 7 q27 0 50.5 -21t23.5 -55q0 -23 -25.5 -56.5t-67.5 -65.5t-107 -55t-134 -23q-76 0 -150.5 29t-141 84t-116.5 146t-71 205h-70q-31 0 -53.5 22t-22.5 54z" />
<glyph unicode="&#x25fc;" horiz-adv-x="1187" d="M0 0v1188h1188v-1188h-1188z" />
</font>
</defs>
</svg>
